<?xml version="1.0" encoding="utf-8"?>
<!-- Generator: Adobe Illustrator 18.1.1, SVG Export Plug-In . SVG Version: 6.00 Build 0)  -->
<svg version="1.1" id="Layer_1" xmlns="http://www.w3.org/2000/svg" xmlns:xlink="http://www.w3.org/1999/xlink" x="0px" y="0px"
	 width="320px" height="247.3px" viewBox="0 0 320 247.3" enable-background="new 0 0 320 247.3" xml:space="preserve">
<g>
	<g>
		<defs>
			<rect id="SVGID_1_" x="0" y="0" width="320" height="247.3"/>
		</defs>
		<clipPath id="SVGID_2_">
			<use xlink:href="#SVGID_1_"  overflow="visible"/>
		</clipPath>
		<rect x="0" y="0" clip-path="url(#SVGID_2_)" fill="#FFFFFF" width="320" height="246.5"/>
		<g clip-path="url(#SVGID_2_)">
			<defs>
				<rect id="SVGID_3_" x="0" y="0" width="320" height="247.3"/>
			</defs>
			<clipPath id="SVGID_4_">
				<use xlink:href="#SVGID_3_"  overflow="visible"/>
			</clipPath>
			<path clip-path="url(#SVGID_4_)" fill="#8CA53C" d="M20.6,210.7c0,0,1.6,2.1-2.3,3.7c-3.4,1.4-8.9-1.7-11.2,0c0,0-2,1.9-0.3,2.9
				c1.8,1,8-0.6,8-0.6l8.6-3l-0.2-4.2L20.6,210.7z"/>
			<path clip-path="url(#SVGID_4_)" fill="#8CA53C" d="M22.3,208.6c0,0-7.6-2.8-8,0.4c0,0-0.5,3.2,4,2.3c0,0,4.5-1.6,5.9-1.2v-1.6
				H22.3z"/>
			<path clip-path="url(#SVGID_4_)" fill="#3B8CCB" d="M31.6,209.3c0,0-0.5,9.2-2.4,12.3c-0.4,0.7-1.3,1.1-1.8,0.8
				c-0.5-0.3-1-1-0.5-2.6c0.9-2.8,4-10.1,4-10.1L31.6,209.3z"/>
			<path clip-path="url(#SVGID_4_)" fill="#3B8CCB" d="M41,207.3c0,0-4.2,3.2,0.8,5c4.8,1.8,12.1,1,14.6,0.6c0.8-0.1,1.6-0.1,2.3,0
				c1.4,0.2,3.3,0.8,3.2,2.1c0,0-0.3,4.3-7.4,2.2c-0.3-0.1-0.6-0.2-0.9-0.2l-8.7-1.7c-1.4-0.3,0,0-4.4-0.9l-6.9-2
				c-1.3-0.4,1.6-1.4,1.5-2.7C35,208.4,40.9,204.9,41,207.3"/>
			<path clip-path="url(#SVGID_4_)" fill="#3B8CCB" d="M35.2,207.8c0,0,9.9-8.1,14.4-8.3c1.1-0.1,2,0.8,2.1,1.8
				c0.1,1-0.3,2.4-2.3,3.3c-3.5,1.5-13.4,4-13.4,4L35.2,207.8z"/>
			<path clip-path="url(#SVGID_4_)" fill="#C22035" d="M260.9,14.5c0,0,7.9-0.1,6.2,14c0,0-3,12.6,3.8,13.6c0,0,6.7,1.5,5.4-11.8
				c0,0-1.3-17,12.7-11.6c0,0,3.9,0.8,3.5,18.4l0,40.3c0,0-1.4,17.6-0.3,25.2c0.4,2.5,2.7,4.4,5.2,4c2.1-0.3,4.1-2,4.1-7.8
				l-4.2-70.4c0,0-1-11.8,6.7-11.9c0,0,8.6-0.7,6.8,12.9c0,0-1.6,17.1,3.1,16.4c0,0,4.1,0.7,4.1-5.8c0,0-4.7-21.9,2-25.5H260.9z"/>
			<path clip-path="url(#SVGID_4_)" fill="#C22035" d="M192.9,0.2c0,0,5.8-0.1,4.6,10.4c0,0-2.2,9.3,2.8,10c0,0,5,1.1,4-8.7
				c0,0-0.9-12.6,9.4-8.6c0,0,2.9,0.6,2.6,13.6l0,29.8c0,0-1,13-0.2,18.6c0.3,1.9,2,3.2,3.8,3c1.5-0.2,3-1.5,3-5.8l-3.1-52
				c0,0-0.8-8.7,5-8.8c0,0,6.3-0.5,5,9.5c0,0-1.2,12.7,2.3,12.1c0,0,3,0.5,3-4.3c0,0-3.5-16.2,1.5-18.8H192.9z"/>
			<path clip-path="url(#SVGID_4_)" fill="#8CA53C" d="M192.1,10.7v14.8c0,0-4.1-0.7-5.8,2.2c0,0-0.9,1.2-0.8,6c0,0,0.3,6.2-4.1,6
				c0,0-3.9,0.2-3.9-5.1c0,0,1.1-6.1-3.2-7.2c0,0-5.3-1.8-6.8,3.4l0.1,8.3c0,0-1,5.2-5.5,2.9c0,0-2-1.8-1.7-6.2c0,0,0.7-9.7-8.1-7.5
				c0,0-5.3,0.8-4.6,9.3l-0.3,8.5c0,0-0.8,4-4.2,2.9c0,0-1.9-0.8-1.9-3.9l-0.2-7.4c0,0-0.4-8.9-8.8-6.8c0,0-4,0.4-4.8,6.7
				c0,0-0.5,24,1,31.8c0,0,0.8,9.8-4.2,10c0,0-4.7-0.1-3.9-7.8l0.9-13.9c0,0,2.3-20-5.3-24.1c0,0-9.8-3.9-13.9,4.6
				c0,0-2.4,3.9-1.5,14.6c0,0,1,10.6-5,8.7c0,0-3.6-1.3-0.9-18.2c2.7-16.9,0-0.4,0-0.4s-1.3-3.6-4.9-0.3c0,0-0.3,7.6-2.1,8.4
				c0,0-4.2,3.3-6.7-0.1c-0.8-1.1-1.1-2.4-1-3.7c0.4-4.8,1-21.1-9.4-17.7c0,0-5.5,0.8-2.5,23.3c0,0,3.9,17.1,0.2,20.3
				c0,0-5.1,4.6-8.3-1.5c0,0-2-1.3,1.9-28.4c0,0,3.3-20.4-4.3-18.5c0,0-5.6-1.1-3.3,13.9c0,0,0,8.1-7,4.6c0,0-3.9-1.3-2-12.7
				c0.4-2.3-0.2-4.8-1.8-6.6c-1.6-1.9-4.4-3.3-8.7-1.3c0,0-4.9,2.7-3.1,14c0,0,2.8,16.6-5.6,15.2c0,0-6.1,1-4.7-15
				c0,0,1.5-11.7-10.7-7c0,0-5.8,3.2-1.8,21.5c0,0,4.3,13.9-4.5,14c0,0-5.3,1-4.6-20.8V10.7"/>
			<path clip-path="url(#SVGID_4_)" fill="none" stroke="#231F20" stroke-width="2" stroke-miterlimit="10" d="M32.2,167.3
				c0,0-6.1,5.6-14.5,2.6c-5.1-1.8-9-6.1-10.4-11.4C5.4,151.7,6.1,141,23,132.2c2.3-1.2,4.9-1.9,7.5-2.1c5.3-0.3,14.1,0.5,17,8
				c0,0,3.4,7.8-3.2,11.4c-1,0.6-2.2,0.7-3.4,0.4c-1.1-0.3-2.8,0-3.8,4.1c-0.2,0.8-0.4,1.7-0.4,2.5
				C36.5,158.7,35.6,164.7,32.2,167.3z"/>
			<path clip-path="url(#SVGID_4_)" fill="none" stroke="#231F20" stroke-width="1.4" stroke-miterlimit="10" d="M38.3,145.8
				c-1.3-0.8-4.8-2.3-10.2,3.2c-1.8,1.8-3.1,4-3.6,6.4c-0.3,1.5-0.5,3.1,0,4.6c0.6,2,2.4,3.4,4.5,3.4c1.5,0,3.3-0.8,4.6-3.7
				c0.3-0.8,0.5-1.7,0.5-2.5c0-2.4,0.5-8.3,4.2-9.6c0.4-0.1,0.6-0.5,0.6-0.9v0C38.8,146.4,38.6,146,38.3,145.8z"/>
			<path clip-path="url(#SVGID_4_)" fill="#F9EE72" d="M28.7,138.5c0,2.2-1.8,4-4,4s-4-1.8-4-4c0-2.2,1.8-4,4-4
				S28.7,136.3,28.7,138.5"/>
			<path clip-path="url(#SVGID_4_)" fill="#F36E33" d="M38.8,136.3c0,2.2-1.8,4-4,4s-4-1.8-4-4c0-2.2,1.8-4,4-4S38.8,134,38.8,136.3
				"/>
			<path clip-path="url(#SVGID_4_)" fill="#E11F26" d="M45.6,140.3c0,1.7-1.4,3.1-3.1,3.1c-1.7,0-3.1-1.4-3.1-3.1s1.4-3.1,3.1-3.1
				C44.2,137.2,45.6,138.6,45.6,140.3"/>
			<path clip-path="url(#SVGID_4_)" fill="#9ACA3E" d="M20.6,145.4c0,2.1-1.7,3.8-3.8,3.8s-3.8-1.7-3.8-3.8s1.7-3.8,3.8-3.8
				S20.6,143.3,20.6,145.4"/>
			<path clip-path="url(#SVGID_4_)" fill="#B780B6" d="M17.2,154.5c0,2.3-1.8,4.1-4.1,4.1S9,156.8,9,154.5s1.8-4.1,4.1-4.1
				S17.2,152.3,17.2,154.5"/>
			<path clip-path="url(#SVGID_4_)" fill="#3B8CCB" d="M20.5,163.1c0,1.7-1.4,3-3,3c-1.7,0-3-1.4-3-3c0-1.7,1.4-3,3-3
				C19.2,160.1,20.5,161.5,20.5,163.1"/>
			<path clip-path="url(#SVGID_4_)" fill="#794C44" d="M53.8,131.8c0,0-3.6,27.6-13.8,39.3c0,0,38.6,2.3,69.8-3.8
				c0,0-12.9-15.5-5.7-43.3c0.1-0.6,0.3-1.1,0.5-1.7c1.1-3.8,7-29.5-22-29.5C82.1,92.8,60.3,91.1,53.8,131.8"/>
			<path clip-path="url(#SVGID_4_)" fill="#FCD0B8" d="M73.3,97.7c-5.8,2.2-14.6,13.5-10.1,26.9c1.3,3.8,3.8,7.2,7.1,9.6
				c2.1,1.6,4.8,3.1,7.3,3.5v8.6l4.8-0.6v-8.4c0,0,17.3-1.3,20.5-21.8c0.4-2.7,0-5.5-1.2-8C98.8,101.1,91.1,91,73.3,97.7"/>
			<path clip-path="url(#SVGID_4_)" fill="#231F20" d="M97.1,103.1c1.3,3.1-0.3,6.8-3.7,8.3c-3.4,1.4-7.2,0-8.5-3.1
				c-1.3-3.1,0.3-6.8,3.7-8.3C91.9,98.6,95.8,100,97.1,103.1"/>
			<path clip-path="url(#SVGID_4_)" fill="#B780B6" d="M77.7,146.2c0,0-0.4,4.6-4.2,4.6c0,0-24.2,1.2-30.9,0.1c0,0,0.5,4.3-1.3,4.6
				c0,0,24.1,1.4,30.8-0.9c0,0,2.2,2.9-2.7,18c0,0,9.3,6.8,18.3,0l-0.6-19c0,0,50-10.2,42.6-56.1l-4.5,1.9c-0.1,0.1,2,11.5-3.7,24
				c-5.3,11.5-17.7,23.1-34.8,26.1c0,0-4-1.2-4.2-3.9L77.7,146.2z"/>
			<path clip-path="url(#SVGID_4_)" fill="#B780B6" d="M69.5,187.7c0,0,2.8,29.4-0.8,34.4c0,0,5.6,2.9,7,0.4c0,0-0.6-34,0.6-35
				C76.3,187.5,73.6,180.6,69.5,187.7"/>
			<path clip-path="url(#SVGID_4_)" fill="#B780B6" d="M82.9,186.8c0,0,11.7,7.9,1.5,24.4c0,0,2.4,0.2,3.2,1.3
				c0.3,0.4,0.9,0.5,1.2,0.1c2.8-3.2,10-13.5-0.3-26.6C88.6,186,82.2,182.1,82.9,186.8"/>
			<path clip-path="url(#SVGID_4_)" fill="#1D3E74" d="M68.7,222.1c0,0-8.9,1.7-6.2,4.8c0.5,0.6,1.3,0.9,2,1
				c2.6,0.3,9.5,0.7,11.6-3.3c0.5-0.9,0.5-1.7-0.4-2.2C75.7,222.4,75.9,224.4,68.7,222.1"/>
			<path clip-path="url(#SVGID_4_)" fill="#1D3E74" d="M85,210.8c0,0-3.2,0.9,0.4,7c0.8,1.4,2,2.4,3.5,3c0.4,0.1,0.8,0.2,1.3,0.3
				c0.8,0,1.4-0.5,1.5-1.3c0.1-1.2,0-3.3-2.2-5.3c-0.8-0.7-1.4-1.6-2-2.5C87.3,211.4,86.6,210.9,85,210.8"/>
			<path clip-path="url(#SVGID_4_)" fill="#E11F26" d="M71.1,119.7c0,0,3.4,7.6,17.3,0.4c0,0-1.2,10.7-10.3,12.4
				C78.1,132.5,68.8,133,71.1,119.7"/>
			<path clip-path="url(#SVGID_4_)" fill="#FCD0B8" d="M125.2,100.1c0,0-4.4-1.3-5.7-5.8c-0.1-0.4,0.3-0.7,0.7-0.6
				c0.9,0.4,2.3,1.3,2.8,3c0,0-1.9-3.8-1.2-5.6c0,0,1.1-0.4,2.8,4.2c0,0-1.5-4.1-1.1-5.6c0.1-0.3,0.4-0.4,0.6-0.1
				c0.6,0.7,1.9,2.7,2.1,5.5c0,0-1.2-5.9,0-6.7c0,0,1.6-0.7,1.6,4c0,0-0.1-2.6,1.4-3.6c0.7-0.5,1.8,0,1.9,0.8
				c0.3,1.7,0.4,4.7-1.4,7.7L125.2,100.1z"/>
			<path clip-path="url(#SVGID_4_)" fill="#FCD0B8" d="M41.3,155.5c0,0-5,3.5-7,1.3c0,0-0.3-1,3.1-1.3c0,0-3.6,0.7-4.4-0.2
				c0,0-1-1.2,4.7-1.5c0,0-5.6,0.6-6.2-0.3c0,0-1.4-1.4,6.7-1.4c0,0-5.6-0.1-5.2-1.2c0,0,0.3-2.1,5.9,0.1c0,0-2.5-2-1.6-2.2
				c0,0,0.5-0.9,5.4,2.1C42.6,150.9,43.4,154.3,41.3,155.5"/>
			<path clip-path="url(#SVGID_4_)" fill="#301A56" d="M69.3,172.6c0,0-3.4-0.2-3.4,3c0,0-5.9,0.4-3.5,6.4c0,0,1.1,1.5,2.7,1.5
				c0,0-2.8,2.7,0.5,4.5c0,0,2.4,1.2,5.1-1.1c0,0,2,3.7,5.7,0.5c0,0,4.5,3.5,7.1-1.5c0,0,5.2,3.1,6.7-2.7c0,0,5.9,1.3,3.6-4.1
				c0,0,5.1-4.3-1.5-5.4c0,0,0-3.9-5.3-1.2c0,0-2.9-3.1-6.5,1.1C80.6,173.7,75.9,168.2,69.3,172.6"/>
			<path clip-path="url(#SVGID_4_)" fill="#2B272C" d="M46.2,151.3l-0.3,4.5l4.6,0.1c0,0,1.3-3.4,0.6-4.5L46.2,151.3z"/>
			<path clip-path="url(#SVGID_4_)" fill="#2B272C" d="M58.3,151.3c0,0,0.8,2.6,0,4.6l4.9-0.1c0,0,1.2-3.6-0.3-4.6L58.3,151.3z"/>
			<path clip-path="url(#SVGID_4_)" fill="#2B272C" d="M67.9,151.1c0,0,0.9,3.2-0.3,4.4l1.7-0.2l2.7-0.5c0,0,1.6-2.9,1.1-3.9
				L67.9,151.1z"/>
			<polygon clip-path="url(#SVGID_4_)" fill="#2B272C" points="86.5,149.5 87,153.6 91.5,152.4 90.5,148.6 			"/>
			<path clip-path="url(#SVGID_4_)" fill="#2B272C" d="M106.4,141.2l2.9,2.8l4.4-3.2l-3.2-2.9C110.5,137.9,106.7,141,106.4,141.2"/>
			<path clip-path="url(#SVGID_4_)" fill="#2B272C" d="M115.4,132.8c0,0,3.2,2.3,4.1,2.4c0,0,4-4.9,4.4-5.9c0,0-4.2-2.2-4.5-2.3
				C119.5,127,115.8,132.9,115.4,132.8"/>
			<path clip-path="url(#SVGID_4_)" fill="#2B272C" d="M123.3,117.9c0,0,4.5,2,4.7,2.5c0,0,2.1-6.1,1.9-6.6c0,0-5-1.6-5.1-1
				C124.8,112.7,123.8,117.5,123.3,117.9"/>
			<path clip-path="url(#SVGID_4_)" fill="#31343C" d="M70,193.8c0,0,5.5,0.1,5.8-0.5l-0.1,5.3c0,0-5.3,0.6-5.4,0L70,193.8z"/>
			<path clip-path="url(#SVGID_4_)" fill="#31343C" d="M70.5,205c0,0,4.8,0.2,5.1-0.4l0,5.2c0,0-5.1,0.7-5.1,0.2L70.5,205z"/>
			<path clip-path="url(#SVGID_4_)" fill="#31343C" d="M70.4,214.1c0,0,4.9,0.1,5.2-0.5l0,4.2c0,0-5.6,0.7-5.6,0.2L70.4,214.1z"/>
			<path clip-path="url(#SVGID_4_)" fill="#31343C" d="M86.5,190.9c0,0,3.5-2.6,4.4-1.4c0,0,1.2,2,1.6,3.2c0,0-4.3-0.3-4.7,1
				L86.5,190.9z"/>
			<path clip-path="url(#SVGID_4_)" fill="#31343C" d="M88.2,202c0,0,5.2-0.5,5.6-0.3c0,0,0.2-1.1,0.1-3.4c0,0-5-0.6-5.3,0.5
				C88.6,198.9,88.4,201.1,88.2,202"/>
			<path clip-path="url(#SVGID_4_)" fill="#31343C" d="M86.2,207.8c0,0,4.5,0.7,4.7,2c0,0,1.2-1.9,1.5-2.9c0,0-4.6-2.3-5.1-1.6
				L86.2,207.8z"/>
			<path clip-path="url(#SVGID_4_)" fill="#2B272C" d="M95.6,147c0,0,5.2-2.2,7-3.3c0,0,1.6,3.1,2.3,2.9c0,0-3.6,2.3-7.9,3.9
				C97,150.4,95.2,147.6,95.6,147"/>
			<path clip-path="url(#SVGID_4_)" fill="#231F20" d="M82.4,101.9c0.8,3.2-1.9,6.7-6.1,7.7c-4.2,1-8.2-0.7-9-3.9
				c-0.8-3.2,1.9-6.7,6.1-7.7C77.6,96.9,81.6,98.7,82.4,101.9"/>
			<path clip-path="url(#SVGID_4_)" fill="#FFFFFF" d="M88.7,102.8c0,0.4-0.3,0.7-0.6,0.7c-0.3,0-0.6-0.3-0.6-0.7
				c0-0.4,0.3-0.7,0.6-0.7C88.4,102,88.7,102.4,88.7,102.8"/>
			<path clip-path="url(#SVGID_4_)" fill="#FFFFFF" d="M88.7,105.6c0.1,0.3,0.1,0.5-0.1,0.6c-0.1,0.1-0.4-0.1-0.5-0.3
				c-0.1-0.3-0.1-0.5,0.1-0.6C88.4,105.2,88.6,105.4,88.7,105.6"/>
			<path clip-path="url(#SVGID_4_)" fill="#FFFFFF" d="M71,102.4c-0.3,0.7-0.9,1-1.3,0.8c-0.4-0.2-0.5-0.9-0.2-1.6
				c0.3-0.7,0.9-1,1.3-0.8C71.3,101,71.3,101.7,71,102.4"/>
			<path clip-path="url(#SVGID_4_)" fill="#FFFFFF" d="M73.1,106.6c0,0.2-0.2,0.3-0.5,0.3s-0.5-0.1-0.5-0.3c0-0.2,0.2-0.3,0.5-0.3
				S73.1,106.4,73.1,106.6"/>
			<path clip-path="url(#SVGID_4_)" fill="#2B272C" d="M72.5,157.6c0,0,14-1,14.6,0l0.1,4.6c0,0-14.7-0.9-15.2,0
				C72,162.3,72.6,158.1,72.5,157.6"/>
			<path clip-path="url(#SVGID_4_)" fill="#2B272C" d="M71,166.8c0,0,13.6,0.3,16.4-0.9l0.1,3.9c0,0-16.1,1.1-17.4,0.2L71,166.8z"/>
			<path clip-path="url(#SVGID_4_)" fill="#A61F24" d="M116,105.2L129.2,94l4-3.5c0,0,2.1-1.4,4-4.8l-1.2-1.3c0,0-3.5,2-4.1,2.8
				l-14.4,14.8l-3.4,3.9C114.2,106,113.3,107,116,105.2"/>
			<polygon clip-path="url(#SVGID_4_)" fill="#ECECED" points="137.3,85.8 136.1,84.5 138,82.7 139.3,83.9 			"/>
			<path clip-path="url(#SVGID_4_)" fill="#B37D57" d="M139.3,83.9c0,0,2.5-0.2,3-2.6c0,0,1-1.8,1.9-2.1c0,0-5.6-1-6.2,3.4
				L139.3,83.9z"/>
			<path clip-path="url(#SVGID_4_)" fill="#3B8CCB" d="M54.8,0H320v16.7c0,0,0.7,15.8-0.5,12.3c0,0-3.9,0.2-3.9-5.1
				c0,0,1.1-6.1-3.2-7.2c0,0-5.3-1.8-6.8,3.4l0.1,8.3c0,0-1,5.2-5.5,2.9c0,0-2-1.8-1.7-6.2c0,0,0.7-9.7-8.1-7.5c0,0-5.3,0.8-4.6,9.3
				l-0.3,8.5c0,0-0.8,4-4.2,2.9c0,0-1.9-0.8-1.9-3.9l-0.2-7.4c0,0-0.4-8.9-8.8-6.8c0,0-4,0.4-4.8,6.7c0,0-0.5,24,1,31.8
				c0,0,0.8,9.8-4.2,10c0,0-4.7-0.1-3.9-7.8l0.9-13.9c0,0,2.3-20-5.3-24.1c0,0-9.8-3.9-13.9,4.6c0,0-2.4,3.9-1.5,14.6
				c0,0,1.4,9.8-5.1,7.6c0,0-3.1-0.1-0.8-17.1c0.4-2.6-1.2-3.1-3.4-2.3c-1.1,0.4-1.5,1.9-1.7,3.1c-0.3,2.1-0.9,6-1.9,6.9
				c0,0-4.2,3.3-6.7-0.1c-0.8-1.1-1.1-2.4-1-3.7c0.4-4.8,1-21.1-9.4-17.7c0,0-5.5,0.8-2.5,23.3c0,0,2.5,11.2,1.5,17.2
				c-0.4,2.4-2.4,4.2-4.7,4.2c-1.5,0-8.8-0.9-3-31c0,0,3.3-20.4-4.3-18.5c0,0-5.6-1.1-3.3,13.9c0,0,0,8.1-7,4.6c0,0-3.9-1.3-2-12.7
				c0.4-2.3-0.2-4.8-1.8-6.6c-1.6-1.9-4.4-3.3-8.7-1.3c0,0-4.9,2.7-3.1,14c0,0,2.8,16.6-5.6,15.2c0,0-6.1,1-4.7-15
				c0,0,1.5-11.7-10.7-7c0,0-5.8,3.2-1.8,21.5c0,0,4.3,13.9-4.5,14c0,0-7.2,0-2.4-20.9c0,0,3.7-18.6-7.4-10.9c0,0-1.4,1.2,0.4,13.9
				c0,0,0,6.5-4.8,5.9c0,0-6.6-0.2-2.7-17.5V0"/>
			<path clip-path="url(#SVGID_4_)" fill="#3B8CCB" d="M127.3,14.8c0,0-7.4-0.6-9.1,2.2c0,0-0.9,1.2-0.8,6c0,0,0.3,6.2-4.1,6
				c0,0-3.9,0.2-3.9-5.1c0,0,1.1-6.1-3.2-7.2c0,0-5.3-1.8-6.8,3.4l0.1,8.3c0,0-1,5.2-5.5,2.9c0,0-2-1.8-1.7-6.2c0,0,0.7-9.7-8.1-7.5
				c0,0-5.2,0.8-4.6,9.3l-0.3,8.5c0,0-0.8,4-4.2,2.9c0,0-1.9-0.8-1.9-3.9l-0.2-7.4c0,0-0.4-8.9-8.8-6.8c0,0-4,0.4-4.8,6.7
				c0,0-0.5,24,1,31.8c0,0,0.8,9.8-4.2,10c0,0-4.7-0.1-3.9-7.8l0.9-13.9c0,0,2.3-20-5.3-24.1c0,0-9.8-3.9-13.9,4.6
				c0,0-2.4,3.9-1.5,14.6c0,0,1.4,9.8-5.1,7.6c0,0-3.4-0.2-0.8-17.1c0.4-2.3,1.5-5,1.7-6.2c0.3-1.7-0.1-3.5-1.1-5
				c-1.3-2-4.2-1.6-5.6,10.5c0,0-0.3,7.6-2.1,8.4c0,0-5.7,4.6-7.8-2.5c0,0,2.9-23.1-9.2-19c0,0-1.6,0.3-2.6,4.1V0h127.1L127.3,14.8z
				"/>
			<path clip-path="url(#SVGID_4_)" fill="#EEC91E" d="M13.5,0c0,0,5.8-0.1,4.6,10.4c0,0-2.2,9.3,2.8,10c0,0,5,1.1,4-8.7
				c0,0-0.9-12.6,9.4-8.6c0,0,2.9,0.6,2.6,13.6l0,29.8c0,0-1,13-0.2,18.6c0.3,1.9,2,3.2,3.8,3c1.5-0.2,3-1.5,3-5.8l-3.1-52
				c0,0-0.8-8.7,5-8.8c0,0,6.3-0.5,5,9.5c0,0-1.2,12.7,2.3,12.1c0,0,3,0.5,3-4.3c0,0-3.5-16.2,1.5-18.8H13.5z"/>
			<path clip-path="url(#SVGID_4_)" fill="#D0DD85" d="M61.3,57.8c0,0,4.4,9.3,7.1,9.5c0,0-0.7,7.3-4.7,5.9
				C59.6,71.8,61.3,57.8,61.3,57.8"/>
			<path clip-path="url(#SVGID_4_)" fill="#8ECAE7" d="M139.9,37.2c0,0,4.4,9.3,7.1,9.5c0,0-0.7,7.3-4.7,5.9
				C138.2,51.2,139.9,37.2,139.9,37.2"/>
			<path clip-path="url(#SVGID_4_)" fill="#EEC91E" d="M125.2,0c0,0,3.4,0,2.6,6c0,0-1.3,5.4,1.6,5.8c0,0,2.9,0.6,2.3-5
				c0,0-0.5-7.2,5.4-4.9c0,0,1.7,0.3,1.5,7.8l0,17.1c0,0-0.6,7.5-0.1,10.7c0.2,1.1,1.1,1.9,2.2,1.7c0.9-0.1,1.8-0.9,1.7-3.3
				l-1.8-29.9c0,0-0.4-5,2.9-5.1c0,0,3.6-0.3,2.9,5.5c0,0-0.7,7.3,1.3,7c0,0,1.7,0.3,1.7-2.5c0,0-2-9.3,0.8-10.8H125.2z"/>
			<path clip-path="url(#SVGID_4_)" fill="#8ECAE7" d="M198.6,46.8c0,0,5.4,9.3,8.1,9.5c0,0-0.7,7.3-4.7,5.9
				C197.9,60.9,198.6,46.8,198.6,46.8"/>
			<path clip-path="url(#SVGID_4_)" fill="#8ECAE7" d="M219.6,24.2c0,0,4.4,9.3,7.1,9.5c0,0-0.7,7.3-4.7,5.9
				C217.9,38.2,219.6,24.2,219.6,24.2"/>
			<path clip-path="url(#SVGID_4_)" fill="#F9CBCD" d="M216.6,52.8c0,0,3.1,9.1,5.8,9.3c0,0,0.4,6.3-3.7,4.9
				C214.6,65.7,216.6,52.8,216.6,52.8"/>
			<path clip-path="url(#SVGID_4_)" fill="#FFFFFF" d="M140.8,42.8c0,0,0.1,9.1,3.7,7.7C144.5,50.5,140.2,54.1,140.8,42.8"/>
			<path clip-path="url(#SVGID_4_)" fill="#FFFFFF" d="M61.8,63.9c0,0,0.1,9.1,3.7,7.7C65.5,71.6,61.2,75.2,61.8,63.9"/>
			<path clip-path="url(#SVGID_4_)" fill="#FFFFFF" d="M220.4,30.2c0,0,0.1,9.1,3.7,7.7C224,37.9,219.8,41.4,220.4,30.2"/>
			<path clip-path="url(#SVGID_4_)" fill="#F6F083" d="M36.9,52.5c0,0,4,8.8,6.1,9c0,0,0.2,7.3-4,6C35.7,66.4,36.9,52.5,36.9,52.5"
				/>
			<path clip-path="url(#SVGID_4_)" fill="#FFFFFF" d="M216.6,57.8c0,0,0.1,9.1,3.7,7.7C220.3,65.6,216,69.1,216.6,57.8"/>
			<path clip-path="url(#SVGID_4_)" fill="#F9CBCD" d="M267.7,27.1c0,0,4,9.1,7.4,9.3c0,0,0.5,6.3-4.7,4.9
				C265.2,39.9,267.7,27.1,267.7,27.1"/>
			<path clip-path="url(#SVGID_4_)" fill="#FFFFFF" d="M267.9,32.1c0,0,0.1,9.1,3.7,7.7C271.6,39.8,267.3,43.4,267.9,32.1"/>
			<path clip-path="url(#SVGID_4_)" fill="#E92731" d="M14.5,201.4c0,0-1.2,2.2,4,3.4c0,0,5.7,2.7,3.4,4.3c-1.6,1.1-0.7,2.4,0,3.1
				c0.6,0.6,0.4,1.6-0.3,1.8c-0.3,0.1-0.8,0.2-1.4,0.1c-2.4-0.4-7.3,3.3-4.8,3.8c2.4,0.5,6.3-2.9,6.3-2.9s2.6-0.9,0.3,1.1
				c0,0-3.2,1.9-2.1,3.8c1.1,1.9,4.1-2.9,4.1-2.9s2.5-0.3,1,2.2c-1.5,2.5-4.2,5.6-2.3,7.1c1.9,1.5,4.1-7.5,4.1-7.5s2.1-3.8,3.6,0.3
				c0,0-1,7.4,1.4,7.8c2.4,0.5,0.2-7.8,0.2-7.8s0.6-2.2,2.2-0.6c1.3,1.3,4.2,6.1,5.2,8c0.4,0.7,1.1,1.2,1.9,1.3
				c0.7,0.1,1.4-0.2,1.5-1.5c0.1-2.7-7.3-9-7.3-9s-1.5-1.3,1.1-1.8c0,0,2,0.9,3.3,2.9c1.3,1.9,4.4,0.3,2.7-1.4
				c-1.1-1-2.3-1.7-3.1-2.1c-0.8-0.4-1.5-1-1.8-1.8c-0.3-0.7-0.3-1.5,0.4-2c0,0,3.6,0.9,3.8-0.6c0.2-1.5-0.4-1.9-2.5-1.5
				c-2.1,0.4-1-2.4,1.3-2.6c2.2-0.2,2.8-3.6-0.5-2.4l-3.3,2.1c0,0-1.8-0.2-0.2-1.8c1.6-1.6,7.3-6.1,4.7-6.9
				c-2.6-0.8-6.8,6.7-6.8,6.7s-0.9,0.2-0.7-1.1c0.1-1.4,1.5-3.9-0.5-2.4c0,0-1.2,3.7-2.6,3c-1.3-0.7-0.5-5.8-0.5-5.8s0.3-6.5-2-5.2
				c-0.6,0.3-0.9,1-0.9,1.6c0,1.1,0,3.6,0.3,9.1c0,0-0.3,3.2-1.5,0.1c-1.2-3.1-2.5-6.2-3.6-5c-1.1,1.2,2.4,6.1,2.4,6.1
				s0.7,2.4-3.4,0.5C17.5,203.1,16.3,198.4,14.5,201.4"/>
			<path clip-path="url(#SVGID_4_)" fill="#F9DA24" d="M29.3,203.6c-0.2,0.8-0.4,2.2,0.3,4.5c0,0-0.1,3.1-2.6,1.2
				c-2.5-1.9-3.5,0.1-2.3,0.8s2.8,1,2.2,1.6c-0.6,0.6-3,1.3-1.5,2.9c0,0,0.6,1,2.8-0.8c0,0,0.7-0.6,1.3,1c0.2,0.7,0.8,1.2,1.5,1.4
				c0.9,0.2,2.1-0.3,2.9-2.9c0,0,0.8-2.7,1.2-3c1.9-1.3,0.5-3.9-3.6-1.2c0,0-0.9,0.1-0.4-1.9c0.4-1.7,0.9-4.8-0.7-4.7
				C29.9,202.6,29.5,203,29.3,203.6"/>
			<path clip-path="url(#SVGID_4_)" fill="#E92731" d="M138.2,239.6c0,0-0.6-0.8,0.9-1.4c1.3-0.5,3.5,0.7,4.4,0c0,0,0.8-0.7,0.1-1.1
				c-0.7-0.4-3.1,0.2-3.1,0.2l-3.4,1.2l0.1,1.6L138.2,239.6z"/>
			<path clip-path="url(#SVGID_4_)" fill="#E92731" d="M137.5,240.4c0,0,3,1.1,3.1-0.1c0,0,0.2-1.2-1.6-0.9c0,0-1.7,0.6-2.3,0.4
				l0,0.6L137.5,240.4z"/>
			<path clip-path="url(#SVGID_4_)" fill="#3B8CCB" d="M133.9,240.1c0,0,0.2-3.6,1-4.8c0.2-0.3,0.5-0.4,0.7-0.3
				c0.2,0.1,0.4,0.4,0.2,1c-0.3,1.1-1.6,3.9-1.6,3.9L133.9,240.1z"/>
			<path clip-path="url(#SVGID_4_)" fill="#3B8CCB" d="M130.3,240.9c0,0,1.6-1.2-0.3-2c-1.9-0.7-4.7-0.4-5.7-0.3c-0.3,0-0.6,0-0.9,0
				c-0.5-0.1-1.3-0.3-1.2-0.8c0,0,0.1-1.7,2.9-0.8c0.1,0,0.2,0.1,0.4,0.1l3.4,0.7c0.6,0.1,0,0,1.7,0.4l2.7,0.8
				c0.5,0.1-0.6,0.5-0.6,1.1C132.6,240.5,130.3,241.8,130.3,240.9"/>
			<path clip-path="url(#SVGID_4_)" fill="#3B8CCB" d="M132.5,240.7c0,0-3.9,3.1-5.7,3.2c-0.4,0-0.8-0.3-0.8-0.7
				c0-0.4,0.1-0.9,0.9-1.3c1.4-0.6,5.2-1.5,5.2-1.5L132.5,240.7z"/>
			<path clip-path="url(#SVGID_4_)" fill="#F9DA24" d="M140.6,243.3c0,0,0.5-0.8-1.6-1.3c0,0-2.2-1.1-1.3-1.7c0.6-0.4,0.3-0.9,0-1.2
				c-0.2-0.2-0.2-0.6,0.1-0.7c0.1,0,0.3-0.1,0.5,0c1,0.2,2.9-1.3,1.9-1.4c-1-0.2-2.5,1.1-2.5,1.1s-1,0.3-0.1-0.4
				c0,0,1.3-0.7,0.8-1.5c-0.4-0.7-1.6,1.1-1.6,1.1s-1,0.1-0.4-0.9c0.6-1,1.6-2.2,0.9-2.8c-0.7-0.6-1.6,2.9-1.6,2.9s-0.8,1.5-1.4-0.1
				c0,0,0.4-2.9-0.5-3.1c-1-0.2-0.1,3-0.1,3s-0.2,0.8-0.9,0.2c-0.5-0.5-1.6-2.4-2-3.2c-0.1-0.3-0.4-0.5-0.7-0.5
				c-0.3,0-0.6,0.1-0.6,0.6c-0.1,1,2.8,3.6,2.8,3.6s0.6,0.5-0.4,0.7c0,0-0.8-0.4-1.3-1.1c-0.5-0.8-1.7-0.2-1,0.5
				c0.4,0.4,0.9,0.7,1.2,0.8c0.3,0.1,0.6,0.4,0.7,0.7c0.1,0.3,0.1,0.6-0.2,0.8c0,0-1.4-0.4-1.5,0.2c-0.1,0.6,0.1,0.7,1,0.6
				c0.8-0.1,0.4,0.9-0.5,1c-0.9,0.1-1.1,1.4,0.2,0.9l1.3-0.8c0,0,0.7,0.1,0.1,0.7c-0.6,0.6-2.9,2.4-1.8,2.7c1,0.3,2.7-2.6,2.7-2.6
				s0.3-0.1,0.3,0.4c0,0.5-0.6,1.5,0.2,0.9c0,0,0.5-1.4,1-1.1c0.5,0.3,0.2,2.3,0.2,2.3s-0.1,2.6,0.8,2c0.2-0.1,0.4-0.4,0.4-0.6
				c0-0.4,0-1.4-0.1-3.6c0,0,0.1-1.2,0.6,0c0.5,1.2,1,2.4,1.4,2c0.4-0.5-0.9-2.4-0.9-2.4s-0.3-1,1.3-0.2
				C139.4,242.6,139.9,244.5,140.6,243.3"/>
			<path clip-path="url(#SVGID_4_)" fill="#8CA53C" d="M134.8,242.4c0.1-0.3,0.1-0.8-0.1-1.8c0,0,0-1.2,1-0.5c1,0.7,1.4,0,0.9-0.3
				c-0.5-0.3-1.1-0.4-0.9-0.6c0.2-0.2,1.2-0.5,0.6-1.1c0,0-0.2-0.4-1.1,0.3c0,0-0.3,0.2-0.5-0.4c-0.1-0.3-0.3-0.5-0.6-0.5
				c-0.4-0.1-0.8,0.1-1.1,1.1c0,0-0.3,1-0.5,1.1c-0.8,0.5-0.2,1.5,1.4,0.5c0,0,0.3,0,0.1,0.7c-0.2,0.7-0.4,1.9,0.3,1.8
				C134.6,242.8,134.8,242.6,134.8,242.4"/>
			<path clip-path="url(#SVGID_4_)" fill="#E11F26" d="M310.1,232.9c0,0-1.6,2.1-4.2-1.2c-2.3-2.8-0.8-9-3.1-10.7
				c0,0-2.4-1.4-2.9,0.6c-0.5,2,2.8,7.5,2.8,7.5l5.3,7.5l3.9-1.3L310.1,232.9z"/>
			<path clip-path="url(#SVGID_4_)" fill="#E11F26" d="M312.5,234c0,0,0.6-8.1-2.7-7.6c0,0-3.2,0.4-1.1,4.5c0,0,2.7,3.8,2.8,5.4
				l1.5-0.4L312.5,234z"/>
			<path clip-path="url(#SVGID_4_)" fill="#E11F26" d="M314.4,243.1c0,0-9,2.1-12.4,1.1c-0.8-0.2-1.4-0.9-1.2-1.5
				c0.1-0.6,0.6-1.3,2.4-1.3c3,0,10.9,1,10.9,1L314.4,243.1z"/>
			<path clip-path="url(#SVGID_4_)" fill="#F36E33" d="M317.2,224.4c0,0-2.4-0.5-2.1,4.8c0,0-1,6.2-3.2,4.4c-1.5-1.3-2.5,0-2.9,0.9
				c-0.4,0.7-1.4,0.9-1.8,0.2c-0.2-0.3-0.4-0.7-0.4-1.3c-0.3-2.5-5.2-6.1-5-3.6c0.2,2.5,4.5,5.2,4.5,5.2s1.6,2.2-0.9,0.6
				c0,0-2.7-2.5-4.2-1c-1.5,1.6,3.9,3.1,3.9,3.1s1,2.3-1.9,1.5s-6.6-2.4-7.5-0.2c-0.9,2.2,8.4,1.8,8.4,1.8s4.2,0.9,0.7,3.5
				c0,0-7.4,1.1-7.1,3.6c0.2,2.5,7.5-2,7.5-2s2.2-0.1,1.2,2c-0.9,1.6-4.7,5.7-6.3,7.3c-0.5,0.6-0.8,1.4-0.7,2.1
				c0.1,0.7,0.6,1.3,1.9,1c2.6-0.6,6.6-9.6,6.6-9.6s0.9-1.8,2,0.5c0,0-0.3,2.2-1.8,4c-1.5,1.8,0.9,4.4,2.1,2.2
				c0.7-1.3,1-2.7,1.1-3.5c0.1-0.9,0.5-1.7,1.2-2.2c0.6-0.5,1.3-0.7,2-0.2c0,0,0.1,3.7,1.6,3.5c1.5-0.2,1.7-0.9,0.7-2.8
				c-1-1.9,2-1.6,2.9,0.5c0.8,2.1,4.3,1.7,2.2-1.1l-2.9-2.6c0,0-0.3-1.8,1.7-0.7c2,1.1,7.9,5.3,8,2.5c0-2.7-8.3-4.6-8.3-4.6
				s-0.5-0.8,0.9-1c1.3-0.3,4.2,0.3,2.2-1.1c0,0-3.9-0.2-3.6-1.6s5.4-2.1,5.4-2.1s6.4-1.5,4.4-3.4c-0.5-0.5-1.2-0.6-1.8-0.4
				c-1.1,0.3-3.5,1-8.7,2.8c0,0-3.2,0.6-0.5-1.4c2.6-2,5.3-4.1,3.8-4.8c-1.4-0.7-5.2,4.1-5.2,4.1s-2.2,1.3-1.4-3.1
				C316.5,227.8,320.7,225.3,317.2,224.4"/>
			<path clip-path="url(#SVGID_4_)" fill="#F9DA24" d="M319.3,239.2c-0.8,0-2.2,0.3-4.2,1.6c0,0-3,0.8-1.9-2.1c1.1-2.9-1-3.3-1.4-2
				c-0.4,1.3-0.2,3-0.9,2.6c-0.7-0.4-2.1-2.5-3.2-0.6c0,0-0.8,0.8,1.5,2.5c0,0,0.8,0.5-0.6,1.5c-0.6,0.4-1,1.1-0.9,1.9
				c0.1,0.9,0.8,1.9,3.6,2c0,0,2.8,0,3.2,0.3c1.7,1.5,3.8-0.6,0.1-3.8c0,0-0.3-0.8,1.7-0.9c1.8-0.1,4.9-0.5,4.3-2
				C320.4,239.6,319.9,239.2,319.3,239.2"/>
			<path clip-path="url(#SVGID_4_)" fill="none" stroke="#231F20" stroke-width="2" stroke-miterlimit="10" d="M315,132.1
				c0,0,5.4-3.4,11.3,0.1c3.6,2.1,5.9,5.9,6.2,10.1c0.4,5.4-1.6,13.4-15.6,17.6c-1.9,0.6-4,0.8-6,0.5c-4.1-0.5-10.6-2.4-11.7-8.4
				c0,0-1.5-6.3,4-8.1c0.9-0.3,1.8-0.2,2.6,0.1c0.8,0.4,2.1,0.4,3.5-2.5c0.3-0.6,0.5-1.2,0.7-1.9C310.5,138,312,133.6,315,132.1z"/>
			<path clip-path="url(#SVGID_4_)" fill="none" stroke="#231F20" stroke-width="1.4" stroke-miterlimit="10" d="M307.3,147.5
				c0.8,0.8,3.3,2.4,8.2-0.9c1.6-1.1,2.9-2.6,3.7-4.3c0.5-1.1,0.8-2.3,0.7-3.5c-0.2-1.6-1.4-2.9-2.9-3.2c-1.1-0.2-2.6,0.1-4,2.1
				c-0.4,0.6-0.6,1.2-0.7,1.8c-0.4,1.8-1.5,6.2-4.5,6.6c-0.3,0-0.5,0.3-0.6,0.6l0,0C307,146.9,307.1,147.2,307.3,147.5z"/>
			<path clip-path="url(#SVGID_4_)" fill="#F9EE72" d="M313.6,154.3c0.3-1.7,1.9-2.8,3.6-2.5c1.7,0.3,2.8,1.9,2.5,3.6
				c-0.3,1.7-1.9,2.8-3.6,2.5C314.3,157.6,313.2,156,313.6,154.3"/>
			<path clip-path="url(#SVGID_4_)" fill="#F36E33" d="M305.6,154.6c0.3-1.7,1.9-2.8,3.6-2.5c1.7,0.3,2.8,1.9,2.5,3.6
				c-0.3,1.7-1.9,2.8-3.6,2.5C306.4,157.9,305.3,156.3,305.6,154.6"/>
			<path clip-path="url(#SVGID_4_)" fill="#E11F26" d="M301,150.6c0.2-1.3,1.5-2.1,2.7-1.9c1.3,0.2,2.1,1.5,1.9,2.7
				c-0.2,1.3-1.5,2.1-2.7,1.9C301.6,153.1,300.8,151.9,301,150.6"/>
		</g>
		<g clip-path="url(#SVGID_2_)">
			<defs>
				<rect id="SVGID_5_" x="0" y="0" width="320" height="247.3"/>
			</defs>
			<clipPath id="SVGID_6_">
				<use xlink:href="#SVGID_5_"  overflow="visible"/>
			</clipPath>
			<path clip-path="url(#SVGID_6_)" fill="#FFFFFF" d="M140.8,42.8c0,0,0.1,9.1,3.7,7.7C144.5,50.5,140.2,54.1,140.8,42.8"/>
			<path clip-path="url(#SVGID_6_)" fill="#ED9E82" d="M243.7,100.6c0,0-0.7-6.5,0.9-6.5c0,0,0.6,0.2,0.1,3.5c0,0,0.5-3.2,1.3-4
				c0.2-0.2,0.5,0,0.5,0.2c0,0.6,0,2.3-0.7,3.9c0,0,2.2-4,2.5-2.3c0,0-0.8,2.1-1.8,2.7c0,0,2.5-1.3,2.4-0.4c0,0-1.2,1.4-2.4,2
				c0,0,1.7-1,2.1-0.5c0.3,0.5-2.7,2.2-2.7,2.2L243.7,100.6z"/>
			<path clip-path="url(#SVGID_6_)" fill="#FCD0B8" d="M243.7,100.6c0,0-20.4,35.8,17.2,46.1c0,0,1.9,4.4,1.7,18.1
				c0,0,8.1,1.8,10.6-1.3c0,0,3-15.3,1.7-17.2c0,0,21.7-1.2,31.3-3.1V140c0,0-36.5,3.2-36.8,2.9c-0.3-0.3,2-9.2,0.9-10.8
				c0,0-3.8,0.4-4.4,0.3c0,0,0.5,7-0.7,9.6c0,0-33-5.4-19.4-40.6L243.7,100.6z"/>
			<path clip-path="url(#SVGID_6_)" fill="#FCD0B8" d="M260.1,173.6c0,0-21,7.4-5.5,44.3c0,0,1.5-1.7,5.5,0.3c0,0-1.3-4.1-3.1-9
				c0,0-8.4-24.1,6.4-34.4C263.3,174.8,260.8,174.8,260.1,173.6"/>
			<path clip-path="url(#SVGID_6_)" fill="#FCD0B8" d="M268.1,172.8c0,0-4.2,28.2-2,41.1c0,0,3.7-0.7,3.9,1c0,0,0-37.9,2.8-43
				C272.8,172,271.7,173.7,268.1,172.8"/>
			<path clip-path="url(#SVGID_6_)" fill="#603930" d="M266.1,214c0,0-3.7,6-0.5,9.1c0.3,0.3,0.7,0.4,1.1,0.3c1.2-0.4,3.8-2,3.3-8.4
				C270,215,269.1,212.8,266.1,214"/>
			<path clip-path="url(#SVGID_6_)" fill="#603930" d="M254.2,217.1c0,0-5.4,0.2-5.6,3.6c0,0.4,0.2,0.8,0.5,1
				c1.3,0.8,4.7,2.4,8.6,0.4c1.1-0.6,1.9-1.5,2.3-2.7C260.5,217.9,259.9,216.1,254.2,217.1"/>
			<path clip-path="url(#SVGID_6_)" fill="#C22035" d="M240.7,107.5c0,0,2.3-1,3.1,0.6l1.5-5.2c0,0-2-1.7-2.6-0.3L240.7,107.5z"/>
			<path clip-path="url(#SVGID_6_)" fill="#C22035" d="M238.4,117.2c0,0,2.5-1.2,4.1-0.8c0,0-0.1,5,1.1,8.1c0,0-3.4-0.5-5,1.3
				C238.6,125.8,237.8,117.5,238.4,117.2"/>
			<path clip-path="url(#SVGID_6_)" fill="#C22035" d="M240.1,131c0,0,4.8-3.1,5.1-2.6c0,0,2.8,5.2,5.2,6.5c0,0-2.7,4.1-4.1,4.6
				C246.4,139.5,241.5,135.4,240.1,131"/>
			<path clip-path="url(#SVGID_6_)" fill="#C22035" d="M252.4,143.5c0,0,2.6-4.3,2.6-5.3c0,0,4.8,2.7,5.4,2.5c0,0-0.6,4.7-2.1,5.2
				L252.4,143.5z"/>
			<path clip-path="url(#SVGID_6_)" fill="#C22035" d="M261.2,147.5c0,0,11.4-0.4,13.7-1.1c0,0,0.4,2.3,0.2,4.7
				c0,0-11.4,1.7-13.1,0.6C262,151.6,261.9,147.8,261.2,147.5"/>
			<path clip-path="url(#SVGID_6_)" fill="#C22035" d="M262.4,155.9c0,0,9.4,0.2,12.2-0.9l-0.8,5.1c0,0-10.7,1.1-11.2,0.2
				L262.4,155.9z"/>
			<path clip-path="url(#SVGID_6_)" fill="#C22035" d="M279,142.3l0.4,3.7l4.9-0.2c0,0-1-3.2-0.7-3.9L279,142.3z"/>
			<path clip-path="url(#SVGID_6_)" fill="#C22035" d="M288.2,141.5c0,0-0.3,3.4,0.5,3.8l4.1-0.5c0,0-0.9-3.1-0.3-3.7L288.2,141.5z"
				/>
			<path clip-path="url(#SVGID_6_)" fill="#C22035" d="M250.9,207.3c0,0,3.5,0.3,5.2-1l1.3,4.5c0,0-3.5,2.4-5,1.3L250.9,207.3z"/>
			<path clip-path="url(#SVGID_6_)" fill="#C22035" d="M249,197.6c0,0,3.9-1,5.6,0c0,0,0.1,4.2,0.5,4.3c0,0-4.5,1.4-5.3,1.2
				L249,197.6z"/>
			<path clip-path="url(#SVGID_6_)" fill="#C22035" d="M249.7,186.7c0,0,2.6,0.9,5.7,0c0,0-1.4,5.1-0.9,6.3l-5.7-0.7L249.7,186.7z"
				/>
			<path clip-path="url(#SVGID_6_)" fill="#C22035" d="M252.8,179.7l4.2,2.5c0,0,1.9-3.2,2.4-3.8l-3.7-2.1L252.8,179.7z"/>
			<path clip-path="url(#SVGID_6_)" fill="#C22035" d="M267.8,175.4h4.1c0,0-0.7,5.4-0.7,5.9h-4.1
				C267.1,181.3,268,175.8,267.8,175.4"/>
			<path clip-path="url(#SVGID_6_)" fill="#C22035" d="M266.6,185.8c0,0,4.1-0.8,4.3-0.3l-0.4,7c0,0-4.5,0.2-4.6,1L266.6,185.8z"/>
			<path clip-path="url(#SVGID_6_)" fill="#C22035" d="M265.7,197.8c0,0,4-1.2,4.7-0.4l-0.1,5.5c0,0-3.6,0.4-4.7,0.9L265.7,197.8z"
				/>
			<path clip-path="url(#SVGID_6_)" fill="#C22035" d="M265.5,207.2l4.6-0.9l-0.1,5.2c0,0-4.2,0.7-4.3,0L265.5,207.2z"/>
			<path clip-path="url(#SVGID_6_)" fill="#ED9E82" d="M306.2,139.9c0,0,1.6-2.7,4.8-1.9c0,0,0.3,1.1-2.8,1.6c0,0,2.3-0.1,3.6,0.1
				c0.4,0.1,0.4,0.6,0.1,0.7c-0.6,0.3-1.8,0.6-3.7,0.4c0.4,0,5.5,0.7,2.6,1.5c0,0-1.1,0.3-2.4-0.3c0.6,0.1,4.9,2.3,0.6,1.6l-0.6-0.2
				c0,0,2.2,2-0.2,1.7c0,0-2.3-0.8-2.6-1.7L306.2,139.9z"/>
			<path clip-path="url(#SVGID_6_)" fill="#231F20" d="M242.7,121.4c0,0,5.4,1.1,10.1-0.9c0,0,2.2-20.2,20.2-21
				c0,0,23.6,3.1,11.6,18.8c0,0,7.8,5.4,13,1.8c-1.2-0.2,11.1-30.8-28.7-25.9c-6,0.8-11.8,3-16.6,6.8
				C247.2,105.1,242.5,111.6,242.7,121.4"/>
			<path clip-path="url(#SVGID_6_)" fill="#ED9E82" d="M252.2,121.1c0,0,9.3,22.4,29.9,4.4c3.9-3.4,6.6-8.1,7.4-13.2
				c1-6.7-1.2-14.6-17.6-12.8C244,102.5,252.2,121.1,252.2,121.1"/>
			<path clip-path="url(#SVGID_6_)" fill="#231F20" d="M270.1,109.3c0,2.8-2.6,5.2-5.9,5.2c-3.3,0-5.9-2.3-5.9-5.2
				c0-2.8,2.6-5.2,5.9-5.2C267.5,104.1,270.1,106.4,270.1,109.3"/>
			<path clip-path="url(#SVGID_6_)" fill="#231F20" d="M274.9,106.5c-2.7,2.3-3.5,5.9-1.8,8c1.8,2.1,5.4,1.9,8.2-0.4
				c2.7-2.3,3.5-5.9,1.8-8C281.3,104,277.7,104.2,274.9,106.5"/>
			<path clip-path="url(#SVGID_6_)" fill="#E11F26" d="M262.2,120c0,0,5.5,6,15.1,0.5c0,0-0.5,7.9-8.8,8.4c-3.7,0.2-7-2.6-7-6.3
				C261.5,121.7,261.7,120.8,262.2,120"/>
			<path clip-path="url(#SVGID_6_)" fill="#FFFFFF" d="M267.9,108.9c0,0.4-0.3,0.7-0.6,0.7s-0.6-0.3-0.6-0.7c0-0.4,0.3-0.7,0.6-0.7
				S267.9,108.5,267.9,108.9"/>
			<path clip-path="url(#SVGID_6_)" fill="#FFFFFF" d="M280.6,109.6c0,0.4-0.2,0.7-0.6,0.7c-0.3,0-0.6-0.3-0.6-0.7
				c0-0.4,0.2-0.7,0.6-0.7C280.3,108.9,280.6,109.2,280.6,109.6"/>
			<path clip-path="url(#SVGID_6_)" fill="#A61F24" d="M237.3,91l7.3,6.1l2.3,1.8c0,0,0.9,1,3,1.7l0.6-0.8c0,0-1.4-1.7-1.9-2
				l-9.4-6.4l-2.4-1.5C236.6,90.1,236,89.7,237.3,91"/>
			<polygon clip-path="url(#SVGID_6_)" fill="#ECECED" points="249.8,100.6 250.4,99.9 251.5,100.7 251,101.5 			"/>
			<path clip-path="url(#SVGID_6_)" fill="#B37D57" d="M251,101.5c0,0,0.3,1.3,1.7,1.4c0,0,1.1,0.3,1.3,0.8c0,0,0-3.1-2.4-3
				L251,101.5z"/>
			<path clip-path="url(#SVGID_6_)" fill="#EEC91E" d="M162.6,53.6c0,0-4.4,2.5,0.8,2.2c5.1-0.3,16.2-3,16.2-3s4.5-2.6-0.6-2.3
				C173.9,50.9,162.6,53.6,162.6,53.6"/>
			<path clip-path="url(#SVGID_6_)" fill="#EEC91E" d="M163.8,58.2c0,0-0.9,6.6,2.9,4.7C170.4,60.9,163.8,58.2,163.8,58.2"/>
			<path clip-path="url(#SVGID_6_)" fill="#EEC91E" d="M179,56.9c0,0-3.6,3.5-1.7,5c0.4,0.3,1,0.3,1.3,0.3c1.2-0.1,1.8-1.4,1.4-2.5
				L179,56.9z"/>
			<path clip-path="url(#SVGID_6_)" fill="#EEC91E" d="M164.7,66c0,0-2.9,2.6,0,2.6h6.2l0.3,2.2c0,0-7,9.8-11.1,4.3
				c0,0-3.1-1.1-1.8,1.1c1,1.8,3,2.8,5.1,2.7c2.3-0.1,5.4-0.9,7.6-4.3c0,0,0.3,9.2,1,9.6c0.7,0.5,1.1,0.4,2.5-6
				c1.6-7.4-1.5-3.6-1.5-3.6s8.2,4.8,8.6,3c0.4-1.8-4.8-2.4-6.8-5.4l-0.5-3h4.3c0,0,5.4-2,0.6-2.1l-4.8-0.2l-0.3-2.3
				c0,0-1.1-3.9-2.9,0v1.7L164.7,66z"/>
			<path clip-path="url(#SVGID_6_)" fill="#EEC91E" d="M173,56.6c0,0-3.6,3.5-1.7,5c0.4,0.3,1,0.3,1.3,0.3c1.2-0.1,1.8-1.4,1.4-2.5
				L173,56.6z"/>
			<path clip-path="url(#SVGID_6_)" fill="#EEC91E" d="M179.9,57.5c0,0,16.4-4.3,7.8-5.7c0,0,6-1.4,3.7,2c-1,1.3-2.4,2.3-3.9,2.8
				C184.9,57.4,181.8,57.9,179.9,57.5"/>
			<path clip-path="url(#SVGID_6_)" fill="#EEC91E" d="M179.9,67.9c0,0,16.4-4.3,7.8-5.7c0,0,6-1.4,3.7,2c-1,1.3-2.4,2.3-3.9,2.8
				C184.9,67.8,181.8,68.3,179.9,67.9"/>
			<path clip-path="url(#SVGID_6_)" fill="#EEC91E" d="M179.1,78c0,0,25.5-6.7,12.1-8.8c0,0,9.4-2.1,5.7,3.1
				c-1.5,2.1-3.7,3.5-6.1,4.3C186.9,77.9,182.1,78.7,179.1,78"/>
			<path clip-path="url(#SVGID_6_)" fill="#E11F26" d="M135.9,59.2l16.1,1.1c0,0,1.7,1.2,0,1.6c-1.7,0.4-16.8-0.5-16.8-0.5
				S131.5,60.2,135.9,59.2"/>
			<path clip-path="url(#SVGID_6_)" fill="#E11F26" d="M134.9,68.1h6.4l1.9-4.7c0,0,2.2-0.7,1.4,0.9c-0.8,1.6-1.4,3.7-1.4,3.7
				l9.5,0.5c0,0,2.3,2.1-1.7,1.9c-4-0.3-8.5,0-8.5,0s-2.8,7.3-3.2,7.4c-0.4,0.1-2.9,3.4-1.6-1.6l2.5-6.2l-5.3-0.1
				C134.9,70.1,132.3,69.1,134.9,68.1"/>
			<path clip-path="url(#SVGID_6_)" fill="#E11F26" d="M146.9,74.7c0,0-1.7-2.4,0.7-1.6l4.1,2.4c0,0,1.9,2.7-1.3,1.6L146.9,74.7z"/>
			<path clip-path="url(#SVGID_6_)" fill="#FFFFFF" d="M200.1,52.8c0,0,0.1,9.1,3.7,7.7C203.8,60.5,199.6,64,200.1,52.8"/>
			<path clip-path="url(#SVGID_6_)" fill="#D0DD85" d="M121.2,65.8c0,0,3.9,10.8,6.7,8c0,0-1.2,5.5-4.8,4.1
				C119.5,76.4,121.2,65.8,121.2,65.8"/>
			<path clip-path="url(#SVGID_6_)" fill="#FFFFFF" d="M122.2,70.4c0,0-0.6,6.9,2.8,6.2C125.1,76.6,120.9,78.9,122.2,70.4"/>
			<path clip-path="url(#SVGID_6_)" fill="#F6F083" d="M18.7,7.3c0,0,2.7,10.6,5.8,7.9c0,0-0.7,6.7-4.7,4.2
				C16.7,17.6,18.7,7.3,18.7,7.3"/>
			<path clip-path="url(#SVGID_6_)" fill="#FFFFFF" d="M38.2,58.2c0,0,0.1,8.8,3,7.4C41.2,65.6,37.7,69,38.2,58.2"/>
			<path clip-path="url(#SVGID_6_)" fill="#FFFFFF" d="M18.8,10.7c0,0,0.1,8.8,3,7.4C21.8,18.1,18.4,21.5,18.8,10.7"/>
		</g>
		<g clip-path="url(#SVGID_2_)">
			<defs>
				<rect id="SVGID_7_" x="0" y="0" width="320" height="247.3"/>
			</defs>
			<clipPath id="SVGID_8_">
				<use xlink:href="#SVGID_7_"  overflow="visible"/>
			</clipPath>
			<path clip-path="url(#SVGID_8_)" fill="#6F4137" d="M204.9,139.5c0,0-16.9,4.1-20.8-0.7c0,0,5.7-14.9,8.4-25.1
				c0,0,4.6-14.6,22.4-12.1c0,0,10.3,1.9,9.9,18.1c0,0,0.4,8.5,3.7,19c0,0-15.5,2.7-17.9,1.5C208.2,139.1,204.9,139.5,204.9,139.5"
				/>
			<path clip-path="url(#SVGID_8_)" fill="#E4B582" d="M205,140c0,0,2.6,3.2,5.3,1.1l-0.4-6.7c0,0,1.1-2.3,4.3-3
				c1.1-0.2,2.1-0.6,3-1.2c3.1-2,8.2-7.2,4.6-19.3c-0.3-1-0.8-2-1.5-2.8c-2.5-3.1-9.4-9.2-20.6-1.6c-1.2,0.8-2.2,1.9-2.8,3.2
				c-2.6,5.1-8.6,19,2.6,22.6c0,0,5.8,1,5.8,3.2L205,140z"/>
			<path clip-path="url(#SVGID_8_)" fill="#231F20" d="M207.9,110.9c0,3.3-2.5,5.9-5.5,5.9c-3,0-5.5-2.6-5.5-5.9
				c0-3.3,2.5-5.9,5.5-5.9C205.4,105,207.9,107.6,207.9,110.9"/>
			<path clip-path="url(#SVGID_8_)" fill="#231F20" d="M221,111.9c0,3-2.6,5.5-5.8,5.5c-3.2,0-5.8-2.4-5.8-5.5c0-3,2.6-5.5,5.8-5.5
				C218.4,106.4,221,108.9,221,111.9"/>
			<path clip-path="url(#SVGID_8_)" fill="#E11F26" d="M199.3,122.1c0,0,3.9,3.8,12.2,0.5c0,0-0.1,10.2-9.6,8.7
				c-1.1-0.2-2.1-0.7-2.7-1.6C198.2,128.3,197.4,125.9,199.3,122.1"/>
			<path clip-path="url(#SVGID_8_)" fill="#78A13F" d="M177.3,148h22.7c0,0,5,0.8,4.9-8c0,0,3.5,2.3,5.3,0.8l-0.1,5.9
				c0,0,15.7,3,31.2-0.4l0.7,2.7c0,0-28.4,3.4-29.9,2.7l-0.9,20.7l-14.7-0.4l2.3-20.3c0,0-20.9-0.4-21.6,0.1V148z"/>
			<path clip-path="url(#SVGID_8_)" fill="#78A13F" d="M198.6,179.8c0,0-27.3,5.8-7.2,33.1c0,0,4,1.3,4.6-1.4
				c0,0-15.6-14.7,1.9-26.6c2.2-1.5,6.5-1,9-0.4c5.7,1.4,13.2,6.7-0.6,27.5c0,0,1.6,3.4,4.9,2.5c0,0,19.7-19.9,1.9-32.5
				C213.1,181.8,207.5,177,198.6,179.8"/>
			<path clip-path="url(#SVGID_8_)" fill="#1D3E74" d="M191.3,212.8c0,0-0.1,9.5,2.8,12c0,0,4-3.8,1.8-13.4L191.3,212.8z"/>
			<path clip-path="url(#SVGID_8_)" fill="#1D3E74" d="M206.3,211.8c0,0-3.3,8.6,0,13c0,0,4.1-2.5,4.9-10.5L206.3,211.8z"/>
			<path clip-path="url(#SVGID_8_)" fill="#E4B582" d="M241.4,146.3c0,0,2.6-5.9,4.2-6.1c0.2,0,0.4,0.2,0.3,0.5
				c-0.3,0.7-0.9,2.4-1.7,3.4c0,0,2.2-2.6,3-2.1c0.1,0.1,0.1,0.2,0.1,0.3c-0.2,0.4-0.9,1.8-2.4,3.3c0,0,2.5-2.1,3.7-2
				c0.3,0,0.4,0.4,0.2,0.6c-0.7,0.6-2.5,2.2-3.5,2.6c0,0,3.1-1,3.7-0.2c0.1,0.1,0.1,0.2,0,0.3c-0.4,0.3-1.5,1.2-4,1.3
				c0,0,2.1,2,1.2,2.8c0,0-0.4,0.3-0.9,0c-0.5-0.3-1.7-2.6-3.1-1.9L241.4,146.3z"/>
			<path clip-path="url(#SVGID_8_)" fill="#E4B582" d="M177.3,148c0,0-4.8-2.6-5.6-1c-0.1,0.2,0.1,0.5,0.2,0.7
				c0.2,0.3,0.7,0.7,1.9,0.8c0,0-4.7-0.7-4.1,0.9c0,0,2.6,0.7,3.8,0.2c0,0-6.1,0.1-4.3,1.3c0,0,3.4,0.5,4.2-0.2c0,0-6,0.7-4.1,2
				c0,0,3.3,0.3,4.3-0.6c0,0-2.8,1.5-1.4,2.1c0,0,4.9-0.4,5.4-2.5L177.3,148z"/>
			<path clip-path="url(#SVGID_8_)" fill="#066233" d="M194.5,169.9c0,0,2.8-5.5,7.3-1.1c0,0,4.2-3.6,5,1.4c0,0,2.5-3.6,7.4,0.2
				c0,0,6.1-3.3,4.5,3.1c0,0,6.1,3-0.6,4.9c0,0,2,6-5.9,3.8c0,0-3.3,3.8-5,0.5c0,0-3.8,3.8-6.1-0.4c0,0-3,3.3-6.6-2.5
				c0,0-9.3,2.5-4.8-5.4c0,0-2.8-6.3,3.2-5.9C192.8,168.4,193.8,168.4,194.5,169.9"/>
			<path clip-path="url(#SVGID_8_)" fill="#292D33" d="M199,151.8c0,0,9,1.2,13.2-0.1l-0.2,3.7c0,0-9.7,1.6-13.5,0L199,151.8z"/>
			<path clip-path="url(#SVGID_8_)" fill="#292D33" d="M198,160.3c0,0,12.1,0.8,13.9-0.3l-0.2,4.4c0,0-10.6,2.7-14.1-0.2L198,160.3z
				"/>
			<path clip-path="url(#SVGID_8_)" fill="#292D33" d="M181.6,148c0,0,0.2,2.6-0.3,3.7l3.4-0.1c0,0,1.3-2.1,0.3-3.6H181.6z"/>
			<path clip-path="url(#SVGID_8_)" fill="#292D33" d="M190.7,148c0,0,0.4,2.3-0.3,3.7l4.2,0c0,0,1.2-3,0.3-3.7H190.7z"/>
			<path clip-path="url(#SVGID_8_)" fill="#292D33" d="M189.3,184.4c0,0,3.7,3.6,3.6,4.6c0,0,2.6-2.6,3.1-3c0,0-1.8-4.3-3.3-4
				C192.7,182,189.7,183.8,189.3,184.4"/>
			<path clip-path="url(#SVGID_8_)" fill="#292D33" d="M184.7,190.6c0,0,4,0.7,5.5,3c0,0-0.9,2.7-0.7,4.8c0,0-4.1-2.9-5.5-2.6
				C184,195.9,183.8,192.6,184.7,190.6"/>
			<path clip-path="url(#SVGID_8_)" fill="#292D33" d="M185.7,203.2c0,0,3.7-0.4,4.6-0.8c0,0,0.7,2.4,1.5,3.5c0,0-3.1,1.8-4.1,1.4
				L185.7,203.2z"/>
			<path clip-path="url(#SVGID_8_)" fill="#292D33" d="M210.8,186.1c0,0,2-3.7,3.7-3.3l1.8,1.6c0,0-3.5,3.1-3.4,3.9
				C212.9,188.3,211.4,186,210.8,186.1"/>
			<path clip-path="url(#SVGID_8_)" fill="#292D33" d="M214.1,192.7c0,0,4.9-3.4,5.8-2.5c0,0,0.7,2.3,0.7,3.8c0,0-5.9,1.7-7,3.1
				C213.5,197.1,214.4,193.4,214.1,192.7"/>
			<path clip-path="url(#SVGID_8_)" fill="#292D33" d="M212.9,199.3c0,0,5.5,1.9,5.5,4.5l-1.9,3.5c0,0-4.2-4.1-5.3-4
				C211.2,203.3,212.9,199.9,212.9,199.3"/>
			<path clip-path="url(#SVGID_8_)" fill="#292D33" d="M207.8,209.4c0,0,4,3.6,4,4.2l1.5-1.8c0,0-3.3-4.6-4.4-4.2
				C208.9,207.6,208,209.2,207.8,209.4"/>
			<path clip-path="url(#SVGID_8_)" fill="#292D33" d="M215,147.4c0,0,0.6,3.5,0,4.3l4.9-0.3c0,0,1.3-1.3,0.4-3.5L215,147.4z"/>
			<path clip-path="url(#SVGID_8_)" fill="#292D33" d="M228.7,147.9c0,0,1.1,1.9,0.4,2.6l5.1-0.6c0,0,1-1.7,0-2.4L228.7,147.9z"/>
			<path clip-path="url(#SVGID_8_)" fill="#FFFFFF" d="M201.7,108.1c-0.1,0.3-0.4,0.6-0.7,0.5c-0.3-0.1-0.4-0.4-0.3-0.8
				c0.1-0.3,0.4-0.6,0.7-0.5C201.7,107.4,201.8,107.8,201.7,108.1"/>
			<path clip-path="url(#SVGID_8_)" fill="#FFFFFF" d="M201.9,112.3c0,0.3-0.2,0.5-0.4,0.5c-0.2,0-0.4-0.2-0.4-0.5
				c0-0.3,0.2-0.5,0.4-0.5C201.7,111.8,201.9,112,201.9,112.3"/>
			<path clip-path="url(#SVGID_8_)" fill="#FFFFFF" d="M215,108.8c0,0.3-0.2,0.5-0.5,0.5s-0.5-0.2-0.5-0.5s0.2-0.5,0.5-0.5
				S215,108.5,215,108.8"/>
			<path clip-path="url(#SVGID_8_)" fill="#FFFFFF" d="M214.8,111.9c0,0.2-0.2,0.4-0.4,0.4c-0.2,0-0.4-0.2-0.4-0.4
				c0-0.2,0.2-0.4,0.4-0.4C214.6,111.6,214.8,111.7,214.8,111.9"/>
		</g>
		<g clip-path="url(#SVGID_2_)">
			<defs>
				<rect id="SVGID_9_" x="0" y="0" width="320" height="247.3"/>
			</defs>
			<clipPath id="SVGID_10_">
				<use xlink:href="#SVGID_9_"  overflow="visible"/>
			</clipPath>
			<path clip-path="url(#SVGID_10_)" fill="#F9A920" d="M142.7,95.9c0,0-27.1,15.3-4.8,46.8c0,0,8.2,7,10.8,6.8c0,0,1,18.9-1.3,21.3
				l12.2,1l1-24c0,0,32.3-12.9,22.5-46.1h-3c0,0,10.4,27.4-21.4,42.1l0.1-2.8l-5.6,0.1l-0.1,3.6c0,0-15.1,0.9-18.6-24.3
				c0,0-3.8-12,8.9-21.6L142.7,95.9z"/>
			<path clip-path="url(#SVGID_10_)" fill="#F36E33" d="M171.9,135.1l2.8,2.9c0,0,3.7-3.8,3.7-4.3l-3.3-2.2
				C175.1,131.5,172.5,134.7,171.9,135.1"/>
			<path clip-path="url(#SVGID_10_)" fill="#F36E33" d="M129.4,123.3c0,0,5.6,0.9,5.8,0.6c0,0,0.9,4.4,1.4,5.4c0,0-5.4,0.9-5.7,0.2
				C130.9,129.5,129.4,123.5,129.4,123.3"/>
			<path clip-path="url(#SVGID_10_)" fill="#423D43" d="M142.8,131.4c0,0-5.2,4.6-6.8-3.6c0,0-3.9-4.3,0-6.6c0,0-2.7-3.7-0.1-6.1
				c0,0-1.3-8.9,3.2-10.7c0,0,1.8-6.3,6-4.4c0,0,2.3-6.9,5.6-3.8c0,0,3.1-2.7,4.4-0.7c0,0,1.4-0.4,2.4,1.2c1,1.5,0,0.7,0,0.7
				s1.8-3.6,3.8-1c0,0,2.7-0.7,3.1,1c0,0,5.2-1.4,7,2.7c0,0,3.8,1.2,1.8,3.8c0,0,4.4-1.9,2,1.5c0,0,1.6,1.7,0.7,2.9
				c0,0,4.8-1.7,0.3,3.9c0,0,3.7,1.2,1.1,7.8c0,0,3.4,2.6-2.1,6.7c0,0,0.1,3.5-3.1,4.7c0,0,1.5,6.3-2.8,4.3c0,0-1.3-2.1,0.2-3.8
				C169.6,131.9,146,122.2,142.8,131.4"/>
			<path clip-path="url(#SVGID_10_)" fill="#78483F" d="M175.3,118.3c0,9.8-7.3,17.9-16.8,18.9v3.7l-5.1,0v-3.9
				c-9-1.5-15.8-9.3-15.8-18.8c0-10.5,8.4-19,18.8-19C166.8,99.2,175.3,107.8,175.3,118.3"/>
			<path clip-path="url(#SVGID_10_)" fill="#231F20" d="M156.3,108.3c0,3.5-3.1,6.2-6.9,6.2c-3.8,0-6.9-2.8-6.9-6.2s3.1-6.2,6.9-6.2
				C153.2,102,156.3,104.8,156.3,108.3"/>
			<path clip-path="url(#SVGID_10_)" fill="#231F20" d="M170.5,109.7c0,3.9-2.9,7-6.5,7s-6.5-3.2-6.5-7c0-3.9,2.9-7,6.5-7
				S170.5,105.9,170.5,109.7"/>
			<path clip-path="url(#SVGID_10_)" fill="#E11F26" d="M147.2,122.1c0,0,9,3.6,15.7,0.5c0,0-0.1,9.5-8.2,8.9c-0.2,0-0.4,0-0.7-0.1
				C146,129.5,147.2,122.1,147.2,122.1"/>
			<path clip-path="url(#SVGID_10_)" fill="#F9A920" d="M157,181.5v32.4c0,0,3.9,2.7,6.7-1.3l-2.1-33.4
				C161.7,179.2,157,174.4,157,181.5"/>
			<path clip-path="url(#SVGID_10_)" fill="#F9A920" d="M145.2,181.4c0,0-2.3,28.4-3.6,33.8c0,0,3,2.3,7.6,0c0,0,0.4-30.3,1.8-33
				C151,182.3,148.3,167.9,145.2,181.4"/>
			<path clip-path="url(#SVGID_10_)" fill="#F36E33" d="M146.4,165.5c0,0-4.7-1.7-3.3,3.9c0,0-5.1-3.2-5.2,4.2
				c0,0.9,0.3,1.8,0.8,2.5c0.3,0.3,0.7,0.6,1.2,0.6c0,0-2.9,0-1.6,2.9c0.8,1.9,2.6,3.1,4.5,3.1c1.4,0,3.1-0.5,4.7-2.2
				c0,0,3.1,8.1,9.7,0.6c0,0,5.3,6.9,6.2-2.2c0,0,9.1,3,4.8-5.1c0,0,7-3.4-0.2-5.9c0,0,3.5-9.8-8.3,0.4c0,0-1.8-8.1-6.5-0.4
				C153.1,168.1,151,158.9,146.4,165.5"/>
			<path clip-path="url(#SVGID_10_)" fill="#C22035" d="M259.7,162c0,0-4.1-1.4-2.9,3.4c0,0-4.3-2.7-4.4,3.6c0,0.8,0.2,1.6,0.7,2.1
				c0.3,0.3,0.6,0.5,1,0.6c0,0-2.5,0-1.4,2.5c0.7,1.7,2.3,2.7,3.9,2.7c1.2,0,2.7-0.5,4-1.9c0,0,2.7,6.9,8.3,0.6c0,0,4.5,5.9,5.3-1.9
				c0,0,7.8,2.6,4.1-4.4c0,0,6-2.9-0.2-5c0,0,3-8.4-7.1,0.4c0,0-1.6-7-5.6-0.4C265.5,164.2,263.7,156.3,259.7,162"/>
			<path clip-path="url(#SVGID_10_)" fill="#F36E33" d="M148.7,149.5c0,0,10.7-0.4,11.6,1.2v3.9l-11.6-0.9V149.5z"/>
			<path clip-path="url(#SVGID_10_)" fill="#F36E33" d="M135.1,138.3l4.1-3.2c0,0,1.8,3.6,4.2,5.4c0,0-3.7,3.6-3.5,3.8
				C139.9,144.3,138.3,143.3,135.1,138.3"/>
			<path clip-path="url(#SVGID_10_)" fill="#F36E33" d="M144.9,185.3c0,0,5.3-0.4,5.6,0l-0.3,3.9c0,0-5.6,0-5.6,0.3L144.9,185.3z"/>
			<path clip-path="url(#SVGID_10_)" fill="#F36E33" d="M143.8,196.7c0,0,4.9-1.4,5.9-0.1l-0.1,2.9c0,0-6.2,0.5-6.1,1.4L143.8,196.7
				z"/>
			<path clip-path="url(#SVGID_10_)" fill="#F36E33" d="M142.7,207.8c0,0,5.9-1.3,6.7-0.3l-0.1,3.1l-7,0.8L142.7,207.8z"/>
			<path clip-path="url(#SVGID_10_)" fill="#F36E33" d="M157,185.2c0,0,3.4-1.5,5-0.4l0.2,3c0,0-3.9-0.9-5.1,0.9V185.2z"/>
			<path clip-path="url(#SVGID_10_)" fill="#F36E33" d="M157,195.5c0,0,3.7-1.9,5.6-0.9l0.2,3.2c0,0-5.8,0.1-5.9,1V195.5z"/>
			<path clip-path="url(#SVGID_10_)" fill="#F36E33" d="M157,207.2c0,0,5.2-3.2,6.2-2l0.2,3.4c0,0-1.9-0.9-6.4,2.2V207.2z"/>
			<path clip-path="url(#SVGID_10_)" fill="#6A4A9E" d="M142.2,215.6c0,0-0.3,7.8,3.1,8.8c0.6,0.2,1.2-0.1,1.4-0.6
				c1-1.8,3.2-6.3,1.9-8.6C148.6,215.2,144.3,212.4,142.2,215.6"/>
			<path clip-path="url(#SVGID_10_)" fill="#6A4A9E" d="M157.5,214.5c0,0-0.2,5.3,1.6,8.8c0.5,0.9,1.7,1,2.3,0.2
				c1.1-1.4,2.3-4.5,1.9-10.7C163.3,212.7,156.7,211.7,157.5,214.5"/>
			<path clip-path="url(#SVGID_10_)" fill="#78483F" d="M142.4,95.7c0,0,0.2-3.5,1.5-4.1c0.2-0.1,0.5,0,0.6,0.3
				c0.1,0.6,0.2,1.8-0.4,3.6c0,0,0.4-3.5,2.8-4.3c0.3-0.1,0.5,0.1,0.5,0.4c0,0.7-0.4,1.9-2.3,3.7c0,0,3.1-2.2,4-1.6c0,0,0.9,1-3.1,3
				c0,0,4.3-0.3,2.5,0.7l-3.2,0.8c0,0,1.6,0.8,1.2,1.9c0,0-0.7,1.3-3.3-1.3L142.4,95.7z"/>
			<path clip-path="url(#SVGID_10_)" fill="#F36E33" d="M149,158.5c0,0,10.5,0,11.2,0.8l-0.2,3.9l-11-0.9V158.5z"/>
			<path clip-path="url(#SVGID_10_)" fill="#F36E33" d="M129.3,114.6c0,0,4.7,1.4,4.7,1c0,0,0.1-4.3,1.1-6.1l-3.6-1.2
				C131.5,108.3,129.1,113.8,129.3,114.6"/>
			<path clip-path="url(#SVGID_10_)" fill="#F36E33" d="M134.3,103.7c0,0,2.4,2.5,2.4,2.5l0,0.1c0,0,2.4-4,3.4-4.6
				c0,0,0.6-0.6,0.6-0.6c0.9-0.3-2.5-1.7-2.5-1.7L134.3,103.7z"/>
			<path clip-path="url(#SVGID_10_)" fill="#F36E33" d="M162.3,142l2.6,3.6c0,0,4.1-2.7,4.4-2.9c0.2-0.2-2.3-3.6-2.3-3.6
				S162.8,141.7,162.3,142"/>
			<path clip-path="url(#SVGID_10_)" fill="#F36E33" d="M178.3,126.5c0,0,3.1,1.7,3.2,2.1c0,0,2.1-4.7,2-5c0,0-3.2-1.8-3.5-1
				C180,122.6,178.8,126,178.3,126.5"/>
			<path clip-path="url(#SVGID_10_)" fill="#F36E33" d="M181.6,115.3c0,0,3.1-0.3,3.3,0.3c0,0,0.1-4.8-0.2-5.9c0,0-2.8-0.5-3,0.3
				C181.8,110,182,114.4,181.6,115.3"/>
			<path clip-path="url(#SVGID_10_)" fill="#F36E33" d="M180.2,101.7c0,0,2.6,0,3,0c0,0,1,3.6,1,4.1c0,0-2.8,0.2-2.9,0.7
				C181.2,106.4,180.5,102.2,180.2,101.7"/>
			<path clip-path="url(#SVGID_10_)" fill="#78483F" d="M180.4,102c0,0-5.2-1.2-5-5.4c0-0.2,0.1-0.3,0.3-0.3c0.4,0,1.4,0.4,3.2,3.3
				c0,0-2.1-5.3-1.4-6c0,0,0.6-1.4,2.7,5c0,0-0.8-4.7,0.2-5.1c0,0,0.9-0.8,1.3,4.7c0,0,0.2-4.6,1.5-4.2c0,0,0.9,0.3,0,3.8
				c0,0,3.2-2.2,2.3,0.2c0,0-1.9,0.8-1.8,2.2l-0.4,1.5L180.4,102z"/>
			<path clip-path="url(#SVGID_10_)" fill="#FFFFFF" d="M148.5,105.7c0,0.4-0.3,0.7-0.7,0.7c-0.4,0-0.7-0.3-0.7-0.7
				c0-0.4,0.3-0.7,0.7-0.7C148.2,105,148.5,105.3,148.5,105.7"/>
			<path clip-path="url(#SVGID_10_)" fill="#FFFFFF" d="M162.9,107.4c0,0.5-0.2,0.9-0.5,0.9s-0.5-0.4-0.5-0.9c0-0.5,0.2-0.9,0.5-0.9
				S162.9,106.8,162.9,107.4"/>
		</g>
		<g clip-path="url(#SVGID_2_)">
			<defs>
				<rect id="SVGID_11_" x="102" y="0" width="133.4" height="201.8"/>
			</defs>
			<clipPath id="SVGID_12_">
				<use xlink:href="#SVGID_11_"  overflow="visible"/>
			</clipPath>
		</g>
	</g>
</g>
<g>
</g>
<g>
</g>
<g>
</g>
<g>
</g>
<g>
</g>
<g>
</g>
</svg>
