<?xml version="1.0" encoding="utf-8"?>
<!-- Generator: Adobe Illustrator 18.1.1, SVG Export Plug-In . SVG Version: 6.00 Build 0)  -->
<svg version="1.1" id="Layer_1" xmlns="http://www.w3.org/2000/svg" xmlns:xlink="http://www.w3.org/1999/xlink" x="0px" y="0px"
	 width="469px" height="281px" viewBox="0 0 469 281" enable-background="new 0 0 469 281" xml:space="preserve">
<path fill="#942628" d="M381.1,151.8c0,0-5.9-5.4-7.1,0.9c0,0-6.2-7.5-9.1,1.1c0,0,0.4,3.3,3.6,3.6c0,0-5.1,0.7-2.6,5.4
	c0,0,5.1,4.8,8.4-0.9c0,0,5.6,11.9,13.4,2c0,0,10.1,4.7,11.6-4.5c0,0,7.9,0.1,5.7-6.8c0,0,5.8-6-2-6.7c0,0-7.9,0.5-8.9,6.7
	L381.1,151.8z"/>
<path fill="#FCD0B8" d="M351,49.1c0,0-32.6,57.2,27.5,73.8c0,0,3.1,7,2.6,28.9c0,0,12.9,3,16.9-2c0,0,4.8-24.4,2.8-27.5
	c0,0,34.7-1.9,50-4.9v-5.2c0,0-58.3,5.1-58.8,4.6c-0.5-0.5,3.1-14.8,1.5-17.3c0,0-6,0.6-7.1,0.5c0,0,0.8,11.2-1.1,15.4
	c0,0-52.7-8.7-31-65L351,49.1z"/>
<path d="M349.3,85.5c0,0,8.7,1.7,16.2-1.5c0,0,3.6-32.3,32.3-33.5c0,0,37.7,4.9,18.5,30.1c0,0,10.4,5.8,18.7,0
	c-1.9-0.4,19.8-46.5-43.8-38.5c-9.7,1.2-18.9,4.8-26.5,10.9C356.6,59.5,349,69.9,349.3,85.5z"/>
<path fill="#FCD0B8" d="M377.1,165.8c0,0-33.5,11.8-8.8,70.9c0,0,2.3-2.7,8.8,0.4c0,0-2.3-9.7-3.4-8.6c0,0-2,3.4-3,3.5
	c0,0,4.3-1.5,1.4-9.3c0,0-13.4-38.5,10.3-55C382.3,167.8,378.2,167.8,377.1,165.8z"/>
<path fill="#FCD0B8" d="M390,164.7c0,0-6.7,45-3.3,65.8c0,0,5.9-1.2,6.3,1.6c0,0,0.1-60.6,4.5-68.7C397.4,163.3,395.7,166,390,164.7
	z"/>
<path stroke="#000000" stroke-linejoin="round" stroke-miterlimit="10" d="M386.7,230.4c0,0-6,9.6-0.8,14.6c0.5,0.5,1.2,0.6,1.8,0.4
	c2-0.6,6-3.1,5.2-13.5C393,232,391.5,228.6,386.7,230.4z"/>
<path stroke="#000000" stroke-linejoin="round" stroke-miterlimit="10" d="M367.7,235.3c0,0-8.7,0.3-9,5.8c0,0.7,0.3,1.3,0.9,1.6
	c2,1.3,7.5,3.9,13.8,0.7c1.7-0.9,3.1-2.4,3.6-4.3C377.7,236.7,376.8,233.8,367.7,235.3z"/>
<path fill="#EC9E81" d="M351,49.1c0,0-1.2-10.4,1.4-10.4c0,0,1,0.4,0.2,5.5c0,0,0.8-5.2,2-6.3c0.3-0.3,0.8-0.1,0.8,0.3
	c0.1,1,0,3.7-1.1,6.2c0,0,3.5-6.4,4-3.6c0,0-1.3,3.4-2.8,4.3c0,0,4-2.1,3.8-0.6c0,0-1.8,2.2-3.9,3.2c0,0,2.8-1.6,3.3-0.7
	c0.5,0.9-4.4,3.5-4.4,3.5L351,49.1z"/>
<path fill="#99292D" d="M345.2,63.1c0,0,3.9-1.4,5.1,1.1l2.2-8.5c0,0-3.6-2.7-4.5-0.4L345.2,63.1z"/>
<path fill="#99292D" d="M342.5,75.7c0,0,3.9-2,6.6-1.3c0,0-0.2,8.1,1.7,12.9c0,0-5.5-0.7-8,2.1C342.8,89.5,341.4,76.2,342.5,75.7z"
	/>
<path fill="#99292D" d="M345.2,97.8c0,0,7.7-5,8.2-4.2c0,0,4.4,8.2,8.3,10.4c0,0-4.3,6.6-6.5,7.3
	C355.2,111.3,347.3,104.7,345.2,97.8z"/>
<path fill="#99292D" d="M364.8,117.7c0,0,4.1-6.9,4.2-8.4c0,0,7.6,4.3,8.7,4c0,0-1,7.5-3.4,8.3L364.8,117.7z"/>
<path fill="#99292D" d="M378.9,124.1c0,0,18.2-0.6,22-1.8c0,0,0.7,3.6,0.3,7.5c0,0-18.2,2.7-20.9,0.9
	C380.2,130.6,380,124.6,378.9,124.1z"/>
<path fill="#99292D" d="M380.9,137.6c0,0,15.1,0.3,19.5-1.5l-1.3,8.1c0,0-17.1,1.7-17.9,0.3L380.9,137.6z"/>
<path fill="#99292D" d="M407.3,115.8l0.6,5.9l7.8-0.4c0,0-1.6-5.1-1.2-6.2L407.3,115.8z"/>
<path fill="#99292D" d="M422,114.6c0,0-0.4,5.5,0.8,6.1l6.6-0.8c0,0-1.5-5-0.5-5.9L422,114.6z"/>
<path fill="#99292D" d="M362.4,219.8c0,0,5.6,0.4,8.4-1.6l2.1,7.2c0,0-5.6,3.8-8,2.1L362.4,219.8z"/>
<path fill="#99292D" d="M359.4,204.3c0,0,6.3-1.7,9,0c0,0,0.2,6.7,0.8,7c0,0-7.2,2.2-8.5,2L359.4,204.3z"/>
<path fill="#99292D" d="M360.5,186.8c0,0,4.2,1.5,9.1,0c0,0-2.3,8.2-1.4,10.1l-9.1-1.1L360.5,186.8z"/>
<path fill="#99292D" d="M365.5,175.5l6.8,4c0,0,3.1-5.2,3.9-6.1l-5.9-3.3L365.5,175.5z"/>
<path fill="#99292D" d="M389.4,168.7h6.6c0,0-1.1,8.6-1.2,9.5h-6.6C388.2,178.2,389.8,169.4,389.4,168.7z"/>
<path fill="#99292D" d="M387.5,185.4c0,0,6.5-1.2,6.8-0.4l-0.6,11.2c0,0-7.2,0.3-7.3,1.5L387.5,185.4z"/>
<path fill="#99292D" d="M386,204.5c0,0,6.3-2,7.4-0.6l-0.2,8.8c0,0-5.7,0.7-7.5,1.5L386,204.5z"/>
<path fill="#99292D" d="M385.8,219.6l7.3-1.4l-0.1,8.3c0,0-6.7,1.1-6.8,0L385.8,219.6z"/>
<path fill="#EC9E81" d="M364.4,81.9c0,0,17,40.9,54.9,0c0,0,21-39.4-23.5-34.5S364.4,81.9,364.4,81.9z"/>
<ellipse cx="383.7" cy="66.2" rx="9.5" ry="8.2"/>
<ellipse transform="matrix(-0.6454 -0.7639 0.7639 -0.6454 616.1266 421.6766)" cx="405.9" cy="67.8" rx="7.9" ry="10.4"/>
<path fill="#E31B23" d="M380.4,80.2c0,0,8.8,9.6,24.2,0.8c0,0-0.9,12.6-14.1,13.4c-5.9,0.4-11.2-4.1-11.2-10
	C379.3,83,379.6,81.5,380.4,80.2z"/>
<ellipse fill="#FFFFFF" cx="388.6" cy="65.6" rx="1" ry="1.1"/>
<ellipse fill="#FFFFFF" cx="409" cy="66.7" rx="0.9" ry="1.1"/>
<path fill="#EC9E81" d="M450.8,112c0,0,2.6-4.2,7.6-3.1c0,0,0.5,1.8-4.5,2.5c0,0,3.7-0.2,5.7,0.2c0.6,0.1,0.7,0.9,0.1,1.1
	c-1,0.4-2.9,0.9-5.9,0.7c0.6,0,8.8,1.2,4.2,2.3c0,0-1.8,0.5-3.8-0.4c0.9,0.2,7.9,3.6,0.9,2.5l-1-0.3c0,0,3.5,3.2-0.3,2.8
	c0,0-3.7-1.2-4.1-2.7l0.9-0.2V112z"/>
<path fill="#6D4036" d="M288.8,111.4c0,0-27.1,6.6-33.2-1.2c0,0,9.1-23.9,13.4-40.2c0,0,7.4-23.3,35.9-19.3c0,0,16.4,3,15.9,28.9
	c0,0,0.7,13.6,5.9,30.4c0,0-24.7,4.3-28.6,2.4S288.8,111.4,288.8,111.4z"/>
<path fill="#E4B584" d="M289,112.2c0,0,4.2,5.2,8.4,1.8l-0.7-10.8c0,0,1.7-3.6,6.9-4.8c1.7-0.4,3.3-1,4.8-1.9
	c4.9-3.2,13.1-11.6,7.4-30.8c-0.5-1.6-1.3-3.1-2.3-4.4c-4-4.9-15-14.7-33-2.5c-1.9,1.3-3.5,3-4.6,5.1c-4.2,8.1-13.8,30.4,4.2,36.2
	c0,0,9.3,1.5,9.3,5.1L289,112.2z"/>
<ellipse cx="284.9" cy="68.7" rx="8.8" ry="9.4"/>
<ellipse cx="305.3" cy="70.3" rx="9.3" ry="8.7"/>
<path fill="#E31B23" d="M280,83.4c0,0,6.3,6,19.6,0.7c0,0-0.1,16.3-15.4,13.9c-1.7-0.3-3.3-1.2-4.4-2.5
	C278.2,93.4,276.9,89.6,280,83.4z"/>
<path fill="#78A241" d="M244.8,124.9h36.3c0,0,8.1,1.2,7.9-12.7c0,0,5.5,3.8,8.5,1.2l-0.1,9.5c0,0,25.2,4.7,49.9-0.7l1.1,4.3
	c0,0-45.5,5.4-47.9,4.3l-1.4,33.2l-23.4-0.6l3.7-32.4c0,0-33.4-0.7-34.6,0.1V124.9z"/>
<path fill="#78A241" d="M276.4,177.9c0,0-41.3,7.1-9.3,50.7c0,0,6.4,2.1,7.3-2.3c0,0-25-23.5,3.1-42.6c3.4-2.3,10.4-1.6,14.4-0.6
	c9,2.2,21.2,10.7-0.9,43.9c0,0,2.6,5.5,7.9,3.9c0,0,31.5-31.8,3.1-52C302,178.9,278.4,170.4,276.4,177.9z"/>
<path stroke="#000000" stroke-linejoin="round" stroke-miterlimit="10" d="M267.2,228.6c0,0-0.1,15.2,4.4,19.1c0,0,6.3-6.1,2.8-21.4
	L267.2,228.6z"/>
<path stroke="#000000" stroke-linejoin="round" stroke-miterlimit="10" d="M291.1,226.9c0,0-5.2,13.8,0,20.8c0,0,6.6-3.9,7.9-16.8
	L291.1,226.9z"/>
<path fill="#E4B584" d="M347.3,122.2c0,0,4.1-9.4,6.7-9.8c0.4-0.1,0.7,0.4,0.5,0.7c-0.4,1.1-1.4,3.8-2.8,5.4c0,0,3.5-4.2,4.7-3.4
	c0.1,0.1,0.2,0.3,0.1,0.5c-0.3,0.7-1.4,2.9-3.8,5.3c0,0,4-3.4,5.8-3.2c0.5,0,0.7,0.6,0.3,0.9c-1.1,1-4,3.6-5.6,4.1
	c0,0,4.9-1.6,5.9-0.3c0.1,0.2,0.1,0.4-0.1,0.5c-0.6,0.5-2.4,2-6.3,2.1c0,0,3.3,3.1,1.9,4.4c0,0-0.7,0.5-1.5,0
	c-0.8-0.5-2.7-4.2-4.9-3L347.3,122.2z"/>
<path fill="#E4B584" d="M244.8,124.9c0,0-7.7-4.2-9-1.5c-0.1,0.3,0.2,0.9,0.4,1.1c0.4,0.4,1.1,1.1,3.1,1.2c0,0-7.5-1.1-6.6,1.5
	c0,0,4.1,1.2,6,0.4c0,0-9.8,0.1-6.9,2.1c0,0,5.5,0.8,6.7-0.2c0,0-9.5,1.1-6.5,3.2c0,0,5.2,0.6,6.8-0.9c0,0-4.5,2.4-2.3,3.3
	c0,0,7.8-0.6,8.7-4L244.8,124.9z"/>
<path fill="#026133" d="M274.8,163.3c0,0,3.4-6.8,9-1.4c0,0,5.2-4.5,6.1,1.8c0,0,3.1-4.5,9.1,0.2c0,0,7.6-4.1,5.6,3.8
	c0,0,7.6,3.7-0.7,6c0,0,2.4,7.4-7.4,4.7c0,0-4.1,4.8-6.2,0.6c0,0-4.7,4.7-7.6-0.5c0,0-3.7,4.1-8.1-3.1c0,0-11.6,3.1-6-6.7
	c0,0-3.4-7.9,4-7.3C272.7,161.5,274,161.5,274.8,163.3z"/>
<path fill="#282C33" d="M279.4,130.9c0,0,14.3,1.9,21.2-0.1l-0.3,5.9c0,0-15.6,2.5-21.6,0L279.4,130.9z"/>
<path fill="#282C33" d="M277.8,144.5c0,0,19.3,1.3,22.1-0.5l-0.3,7c0,0-16.9,4.2-22.5-0.4L277.8,144.5z"/>
<path fill="#282C33" d="M251.7,124.9c0,0,0.4,4.1-0.5,5.9l5.4-0.1c0,0,2-3.3,0.5-5.7H251.7z"/>
<path fill="#282C33" d="M266.1,124.9c0,0,0.6,3.6-0.4,5.9l6.7,0c0,0,1.9-4.7,0.5-5.9H266.1z"/>
<path fill="#282C33" d="M263.9,183.2c0,0,6,5.8,5.8,7.4c0,0,4.1-4.1,4.9-4.7c0,0-2.1-6.3-4.6-6C270,179.9,264.5,182.2,263.9,183.2z"
	/>
<path fill="#282C33" d="M256.1,193c0,0,6.9,1.2,9.3,4.8c0,0-1.4,4.3-1.2,7.8c0,0-6.9-4.9-9.2-4.4C255,201.2,254.6,196.2,256.1,193z"
	/>
<path fill="#282C33" d="M258.1,213.3c0,0,6-0.6,7.3-1.3c0,0,1.1,3.8,2.4,5.5c0,0-4.9,2.9-6.5,2.2L258.1,213.3z"/>
<path fill="#282C33" d="M298.3,185.8c0,0,3.1-6,5.9-5.2l2.8,2.6c0,0-5.6,5-5.4,6.2C301.6,189.4,299.2,185.6,298.3,185.8z"/>
<path fill="#282C33" d="M303.5,196.4c0,0,7.8-5.5,9.2-4c0,0,1.1,3.6,1.1,6c0,0-9.5,2.7-11.2,5C302.6,203.4,304,197.5,303.5,196.4z"
	/>
<path fill="#282C33" d="M301.6,207c0,0,8.8,3,8.8,7.1l-3,5.6c0,0-6.7-6.6-8.5-6.4C298.9,213.3,301.6,207.9,301.6,207z"/>
<path fill="#282C33" d="M293.6,223c0,0,6.4,5.8,6.4,6.8l2.4-2.9c0,0-5.2-7.3-7.1-6.8C295.3,220.2,293.7,222.8,293.6,223z"/>
<path fill="#282C33" d="M304.9,124c0,0,1,5.6,0,6.8l7.9-0.5c0,0,2.1-2.1,0.6-5.7L304.9,124z"/>
<path fill="#282C33" d="M326.9,124.7c0,0,1.7,3.1,0.7,4.1l8.2-0.9c0,0,1.6-2.8,0-3.9L326.9,124.7z"/>
<ellipse transform="matrix(0.9555 0.2948 -0.2948 0.9555 31.4676 -80.5998)" fill="#FFFFFF" cx="283" cy="64.1" rx="0.8" ry="1"/>
<ellipse fill="#FFFFFF" cx="283.4" cy="71" rx="0.6" ry="0.8"/>
<ellipse fill="#FFFFFF" cx="304.2" cy="65.5" rx="0.8" ry="0.9"/>
<ellipse fill="#FFFFFF" cx="304" cy="70.4" rx="0.6" ry="0.6"/>
<path fill="#FBAA1F" d="M189.5,41.6c0,0-43.4,24.5-7.7,74.8c0,0,13.1,11.2,17.3,10.9c0,0,1.6,30.1-2.1,34l19.4,1.6l1.7-38.4
	c0,0,51.6-20.6,36-73.7h-4.7c0,0,16.6,43.8-34.2,67.3l0.1-4.5l-9,0.1l-0.1,5.8c0,0-24.1,1.5-29.7-38.9c0,0-6.1-19.2,14.2-34.6
	L189.5,41.6z"/>
<path fill="#423C42" d="M189.6,98.4c0,0-8.4,7.3-10.8-5.7c0,0-6.3-6.9,0-10.5c0,0-4.3-5.9-0.2-9.7c0,0-2-14.2,5.2-17.1
	c0,0,2.9-10.1,9.7-7c0,0,3.6-11,9-6.1c0,0,4.9-4.4,7-1.2c0,0,2.2-0.6,3.8,1.8s0,1.1,0,1.1s2.9-5.8,6.1-1.6c0,0,4.3-1.1,4.9,1.6
	c0,0,8.3-2.2,11.2,4.3c0,0,6.1,1.9,2.9,6.1c0,0,7.1-3.1,3.2,2.5c0,0,2.6,2.6,1.2,4.7c0,0,7.7-2.6,0.4,6.2c0,0,5.9,2,1.7,12.4
	c0,0,5.4,4.1-3.3,10.7c0,0,0.2,5.7-4.9,7.5c0,0,2.5,10.1-4.5,6.9c0,0-2-3.4,0.4-6C232.4,99.2,194.7,83.7,189.6,98.4z"/>
<path fill="#77473D" d="M241.5,77.4c0,15.7-11.7,28.6-26.8,30.2v7.3h-8.1v-7.5c-14.3-2.3-25.3-14.9-25.3-30.1
	c0-16.8,13.5-30.4,30.1-30.4S241.5,60.6,241.5,77.4z"/>
<ellipse cx="200.1" cy="64.6" rx="11.1" ry="10"/>
<ellipse cx="223.4" cy="66.9" rx="10.4" ry="11.3"/>
<path fill="#E31B23" d="M196.6,83.4c0,0,14.4,5.8,25.1,0.8c0,0-0.1,15.3-13.2,14.2c-0.3,0-0.7,0-1.1-0.1
	C194.6,95.3,196.6,83.4,196.6,83.4z"/>
<path fill="#FBAA1F" d="M212.4,178.5v51.8c0,0,6.3,4.3,10.7-2.1l-3.3-53.4C219.7,174.9,212.4,167.2,212.4,178.5z"/>
<path fill="#FBAA1F" d="M193.4,178.3c0,0-3.6,45.5-5.8,54.1c0,0,4.8,3.7,12.2,0c0,0,0.7-48.4,2.9-52.7
	C202.7,179.7,198.4,156.7,193.4,178.3z"/>
<path fill="#F36E32" d="M197.6,157.7c0,0-5.6-2-3.9,4.6c0,0-6-3.7-6.1,5c0,1.1,0.3,2.2,1,2.9c0.4,0.4,0.8,0.7,1.4,0.8
	c0,0-3.4,0-1.9,3.4c1,2.3,3.1,3.7,5.3,3.6c1.6,0,3.7-0.6,5.5-2.6c0,0,3.7,9.5,11.4,0.8c0,0,6.2,8.1,7.3-2.6c0,0,10.7,3.6,5.7-6
	c0,0,8.2-4-0.3-6.9c0,0,4.1-11.6-9.8,0.5c0,0-2.2-9.6-7.7-0.5C205.6,160.8,203.1,150,197.6,157.7z"/>
<path fill="#F36E32" d="M199.1,127.3c0,0,17.1-0.6,18.6,1.9v6.2l-18.6-1.5V127.3z"/>
<path fill="#F36E32" d="M177.2,109.4l6.5-5.1c0,0,2.9,5.7,6.7,8.6c0,0-5.9,5.7-5.6,6C184.9,118.9,182.4,117.4,177.2,109.4z"/>
<path fill="#F36E32" d="M192.9,184.6c0,0,8.5-0.7,8.9,0l-0.5,6.2c0,0-8.9,0.1-8.9,0.4L192.9,184.6z"/>
<path fill="#F36E32" d="M191.2,202.9c0,0,7.8-2.2,9.4-0.2l-0.2,4.7c0,0-9.9,0.9-9.8,2.2L191.2,202.9z"/>
<path fill="#F36E32" d="M189.4,220.5c0,0,9.4-2,10.6-0.5l-0.1,4.9l-11.3,1.3L189.4,220.5z"/>
<path fill="#F36E32" d="M212.4,184.4c0,0,5.4-2.4,7.9-0.7l0.3,4.8c0,0-6.3-1.5-8.2,1.5V184.4z"/>
<path fill="#F36E32" d="M212.4,201c0,0,6-3,9-1.4l0.3,5.1c0,0-9.2,0.1-9.4,1.7V201z"/>
<path fill="#F36E32" d="M212.4,219.5c0,0,8.3-5.2,9.9-3.2l0.3,5.4c0,0-3-1.4-10.3,3.5V219.5z"/>
<path stroke="#000000" stroke-miterlimit="10" d="M188.6,233c0,0-0.5,12.4,4.9,14.1c0.9,0.3,1.8-0.2,2.3-1c1.5-2.8,5-10,3.1-13.7
	C198.9,232.4,192,227.9,188.6,233z"/>
<path stroke="#000000" stroke-miterlimit="10" d="M213.7,231c0,0-0.3,8.4,2.6,14.1c0.7,1.4,2.7,1.5,3.7,0.3
	c1.7-2.3,3.7-7.1,3.1-17.1C223,228.2,212.4,226.6,213.7,231z"/>
<path fill="#77473D" d="M188.4,42.2c0,0,1-5.5,3.1-6.3c0.4-0.2,0.9,0.1,0.9,0.6c0.1,0.9,0,2.9-1.3,5.7c0,0,1.3-5.5,5.2-6.3
	c0.4-0.1,0.8,0.3,0.8,0.7c-0.2,1-1,3-4.3,5.5c0,0,5.3-3,6.6-1.8c0,0,1.2,1.8-5.5,4.1c0,0,6.8,0.3,3.8,1.6l-5.3,0.7
	c0,0,2.4,1.6,1.5,3.2c0,0-1.3,1.9-5-2.7L188.4,42.2z"/>
<path fill="#F36E32" d="M199.4,141.7c0,0,16.8,0,17.8,1.2l-0.3,6.2l-17.6-1.4V141.7z"/>
<path fill="#F36E32" d="M168.2,85.4c0,0,8.9,1.4,9.2,1c0,0,1.4,7,2.3,8.7c0,0-8.7,1.4-9.1,0.3C170.6,95.3,168.2,85.8,168.2,85.4z"/>
<path fill="#F36E32" d="M168,73.8c0,0,7.6,2.3,7.6,1.6c0,0-0.3-7.5,1.2-10.4l-6.1-1.6C170.7,63.4,167.6,72.4,168,73.8z"/>
<path fill="#F36E32" d="M174.6,56.1c0,0,3.9,4.5,3.9,4.4c0.1-0.1-0.1,0.1-0.1,0.1s3.9-7.5,5.5-8.5c0.1,0,0.1-0.1,0.2-0.1
	c1.4-0.4-4-2.8-4-2.8L174.6,56.1z"/>
<path fill="#F36E32" d="M220.7,115.4l4.1,5.8c0,0,6.6-4.3,7-4.6s-3.7-5.8-3.7-5.8S221.5,114.9,220.7,115.4z"/>
<path fill="#F36E32" d="M236.1,104.2l4.5,4.7c0,0,6-6,5.8-6.8l-5.3-3.5C241.2,98.6,237,103.7,236.1,104.2z"/>
<path fill="#F36E32" d="M246.4,90.6c0,0,4.9,2.8,5.1,3.3c0,0,3.4-7.5,3.2-8c0,0-5.1-2.9-5.6-1.6C249.1,84.4,247.1,89.7,246.4,90.6z"
	/>
<path fill="#F36E32" d="M251.3,75.5c0,0,5.1-0.1,5.4,0.8c0,0,0.5-9.2,0.3-9.4c0,0-4.7-0.9-5,0.4C251.9,67.3,251.9,74,251.3,75.5z"/>
<path fill="#F36E32" d="M250.4,54.7c0,0,3.8-1.3,4.6-0.2c0,0,1.1,5.3,1.2,6c0,0-4.5,0.4-4.7,1.1C251.6,61.6,251,55.5,250.4,54.7z"/>
<path fill="#77473D" d="M249.7,52.1c0,0-8.4-1.9-8-8.6c0-0.3,0.2-0.5,0.5-0.5c0.7,0,2.3,0.6,5.2,5.2c0,0-3.4-8.4-2.3-9.5
	c0,0,1-2.3,4.3,8c0,0-1.3-7.6,0.3-8.2c0,0,1.5-1.4,2.1,7.6c0,0,0.3-7.4,2.4-6.7c0,0,1.4,0.4,0,6.1c0,0,5.1-3.4,3.7,0.3
	c0,0-3.1,1.3-2.9,3.5l-0.7,2.4L249.7,52.1z"/>
<ellipse fill="#FFFFFF" cx="197.5" cy="60.5" rx="1.1" ry="1.2"/>
<ellipse fill="#FFFFFF" cx="221" cy="63.1" rx="0.7" ry="1.5"/>
<path fill="#794B43" d="M47.2,99c0,0-5.8,44.2-22.1,62.9c0,0,61.6,3.7,111.6-6.1c0,0-20.6-24.7-9.1-69.2c0.2-0.9,0.5-1.8,0.8-2.7
	c1.8-6,11.3-47.2-35.2-47.2C92.5,36.6,57.7,33.9,47.2,99z"/>
<path fill="#FCD0B8" d="M78.5,44.5C69.2,48,55.1,66.1,62.4,87.5c2.1,6.1,6.1,11.5,11.3,15.3c3.4,2.5,7.6,5,11.7,5.6v13.7l7.7-1
	v-13.4c0,0,27.7-2,32.7-34.9c0.7-4.4,0-8.8-1.9-12.8C119.3,50,106.9,33.8,78.5,44.5z"/>
<ellipse transform="matrix(0.9211 -0.3893 0.3893 0.9211 -15.1126 46.3117)" cx="106.7" cy="60.4" rx="10.6" ry="9.9"/>
<path fill="#B880B7" d="M85.4,122.1c0,0-0.7,7.4-6.7,7.3c0,0-38.8,2-49.3,0.2c0,0,0.8,6.8-2.1,7.3c0,0,38.6,2.3,49.2-1.5
	c0,0,3.6,4.6-4.4,28.8c0,0,14.8,10.9,29.3,0l-1-30.4c0,0,79.9-16.3,68.1-89.7l-7.1,3.1c-0.2,0.2,3.2,18.4-6,38.4
	c-8.4,18.5-28.3,37-55.6,41.7c0,0-6.3-1.9-6.7-6.2L85.4,122.1z"/>
<path fill="#B880B7" d="M72.3,188.5c0,0,4.5,47-1.3,55c0,0,8.9,4.6,11.3,0.7c0,0-0.9-54.3,0.9-56C83.3,188.1,78.9,177.1,72.3,188.5z
	"/>
<path fill="#B880B7" d="M93.8,186.9c0,0,18.6,12.7,2.4,39c0,0,3.9,0.3,5.2,2.1c0.5,0.7,1.4,0.8,1.9,0.2c4.5-5.1,16-21.5-0.4-42.5
	C102.9,185.7,92.6,179.5,93.8,186.9z"/>
<path fill="#39363D" d="M71.1,243.5c0,0-14.3,2.8-9.9,7.6c0.8,0.9,2,1.4,3.2,1.6c4.2,0.5,15.2,1.1,18.6-5.3c0.8-1.4,0.8-2.8-0.6-3.5
	C82.3,243.9,82.7,247.1,71.1,243.5z"/>
<path fill="#39363D" d="M97.2,225.3c0,0-5.2,1.4,0.6,11.1c1.3,2.2,3.3,3.9,5.6,4.7c0.7,0.2,1.3,0.4,2.1,0.4c1.2,0.1,2.3-0.8,2.4-2
	c0.2-2-0.1-5.3-3.5-8.4c-1.3-1.1-2.3-2.5-3.1-4C100.8,226.3,99.7,225.5,97.2,225.3z"/>
<path fill="#E31B23" d="M74.9,79.7c0,0,5.4,12.1,27.7,0.7c0,0-1.9,17.2-16.5,19.8C86.1,100.1,71.2,100.9,74.9,79.7z"/>
<path fill="#FCD0B8" d="M161.5,48.4c0,0-7-2-9.2-9.2c-0.2-0.6,0.5-1.2,1.1-0.9c1.5,0.6,3.7,2,4.6,4.8c0,0-3-6.1-2-9
	c0,0,1.8-0.6,4.5,6.8c0,0-2.4-6.6-1.8-9c0.1-0.4,0.7-0.6,1-0.2c1,1.2,3,4.2,3.3,8.8c0,0-2-9.5,0-10.7c0,0,2.5-1.2,2.5,6.5
	c0,0-0.2-4.1,2.2-5.8c1.2-0.8,2.8-0.1,3.1,1.3c0.5,2.7,0.7,7.5-2.2,12.4L161.5,48.4z"/>
<path fill="#FCD0B8" d="M27.3,136.9c0,0-7.9,5.5-11.2,2.1c0,0-0.5-1.6,5-2.1c0,0-5.7,1.1-7-0.4c0,0-1.6-1.9,7.4-2.4
	c0,0-8.9,1-10-0.5c0,0-2.3-2.3,10.8-2.2c0,0-9-0.1-8.3-2c0,0,0.4-3.3,9.4,0.2c0,0-4-3.2-2.6-3.5c0,0,0.8-1.4,8.6,3.4
	C29.4,129.6,30.7,135,27.3,136.9z"/>
<path fill="#2F0557" d="M72,164.3c0,0-5.5-0.3-5.5,4.8c0,0-9.4,0.7-5.7,10.3c0,0,1.7,2.5,4.4,2.5c0,0-4.6,4.4,0.8,7.1
	c0,0,3.9,1.9,8.1-1.7c0,0,3.2,6,9.2,0.9c0,0,7.1,5.5,11.3-2.5c0,0,8.3,4.9,10.8-4.4c0,0,9.4,2,5.8-6.5c0,0,8.1-6.8-2.3-8.6
	c0,0,0-6.2-8.4-1.9c0,0-4.6-4.9-10.3,1.7C90.1,166,82.6,157.2,72,164.3z"/>
<path fill="#2C272C" d="M35.1,130.1l-0.5,7.1l7.3,0.2c0,0,2.2-5.5,1-7.2L35.1,130.1z"/>
<path fill="#2C272C" d="M54.5,130.3c0,0,1.3,4.1,0,7.3l7.9-0.2c0,0,2-5.7-0.4-7.3L54.5,130.3z"/>
<path fill="#2C272C" d="M69.8,129.9c0,0,1.4,5.1-0.4,7l2.7-0.4l4.4-0.8c0,0,2.6-4.7,1.8-6.2L69.8,129.9z"/>
<polygon fill="#2C272C" points="99.6,127.3 100.4,133.9 107.6,131.9 105.9,125.9 "/>
<path fill="#2C272C" d="M131.4,114.1l4.6,4.4l7-5.1l-5-4.6C138,108.8,131.9,113.7,131.4,114.1z"/>
<path fill="#2C272C" d="M145.8,100.6c0,0,5.1,3.8,6.6,3.8c0,0,6.5-7.9,7.1-9.4c0,0-6.7-3.5-7.1-3.7
	C152.4,91.4,146.4,100.7,145.8,100.6z"/>
<path fill="#2C272C" d="M157.7,79.9c0,0,7.2,3.3,7.4,3.9c0,0,3.3-9.8,3.1-10.6c0,0-8-2.5-8.2-1.6C160,71.7,158.4,79.4,157.7,79.9z"
	/>
<path fill="#31333B" d="M73.1,198.2c0,0,8.8,0.2,9.2-0.8l-0.2,8.5c0,0-8.5,0.9-8.6,0L73.1,198.2z"/>
<path fill="#31333B" d="M74,216.1c0,0,7.7,0.4,8.1-0.6l0.1,8.3c0,0-8.1,1.2-8.2,0.3L74,216.1z"/>
<path fill="#31333B" d="M73.8,230.7c0,0,7.9,0.2,8.3-0.8l0.1,6.7c0,0-9,1.2-9,0.3L73.8,230.7z"/>
<path fill="#31333B" d="M99.6,193.5c0,0,5.6-4.2,7.1-2.2c0,0,1.9,3.1,2.5,5.2c0,0-6.9-0.4-7.5,1.6L99.6,193.5z"/>
<path fill="#31333B" d="M102.3,211.3c0,0,8.3-0.8,8.9-0.5c0,0,0.3-1.8,0.1-5.4c0,0-8-0.9-8.5,0.9
	C102.9,206.3,102.6,209.8,102.3,211.3z"/>
<path fill="#31333B" d="M99.1,220.6c0,0,7.2,1.1,7.5,3.1c0,0,1.9-3,2.4-4.6c0,0-7.3-3.7-8.2-2.5L99.1,220.6z"/>
<path fill="#2C272C" d="M114.2,123.3c0,0,8.2-3.6,11.2-5.3c0,0,2.6,4.9,3.6,4.6c0,0-5.7,3.7-12.7,6.2
	C116.3,128.8,113.5,124.2,114.2,123.3z"/>
<ellipse transform="matrix(0.9701 -0.2429 0.2429 0.9701 -11.5258 21.3854)" cx="81" cy="57.4" rx="12.5" ry="9.6"/>
<ellipse fill="#FFFFFF" cx="102.2" cy="55.8" rx="0.9" ry="1.2"/>
<ellipse transform="matrix(0.9203 -0.3911 0.3911 0.9203 -15.5025 44.9593)" fill="#FFFFFF" cx="102.6" cy="60.5" rx="0.5" ry="0.8"/>
<ellipse transform="matrix(0.8998 0.4363 -0.4363 0.8998 31.2002 -26.6402)" fill="#FFFFFF" cx="73.6" cy="54.6" rx="1.3" ry="2.1"/>
<ellipse fill="#FFFFFF" cx="77.4" cy="61.8" rx="0.7" ry="0.5"/>
<path fill="#2C272C" d="M77.2,140.3c0,0,22.4-1.5,23.3,0l0.2,7.4c0,0-23.4-1.4-24.4,0C76.4,147.8,77.4,141.1,77.2,140.3z"/>
<path fill="#2C272C" d="M74.8,155c0,0,21.8,0.5,26.2-1.4l0.2,6.2c0,0-25.7,1.7-27.8,0.3L74.8,155z"/>
<g>
	<path fill="#A61F23" d="M146.8,56.5l21.1-17.8l6.5-5.6c0,0,3.3-2.2,6.5-7.6l-1.9-2c0,0-5.6,3.2-6.6,4.5l-23,23.7l-5.5,6.2
		C143.8,57.8,142.5,59.4,146.8,56.5z"/>
	<polygon fill="#ECEDEE" points="180.8,25.5 178.9,23.4 181.9,20.5 183.9,22.5 	"/>
	<path fill="#B47D57" d="M183.9,22.5c0,0,4-0.3,4.8-4.2c0,0,1.5-2.9,3-3.4c0,0-8.9-1.5-9.9,5.5L183.9,22.5z"/>
</g>
<g>
	<path fill="#A61F23" d="M340.7,33.8l11.6,9.7l3.6,3c0,0,1.5,1.6,4.7,2.8l0.9-1.2c0,0-2.3-2.7-3.1-3.1l-15-10.2l-3.9-2.4
		C339.7,32.3,338.7,31.7,340.7,33.8z"/>
	<polygon fill="#ECEDEE" points="360.7,49.2 361.6,48 363.5,49.3 362.6,50.6 	"/>
	<path fill="#B47D57" d="M362.6,50.6c0,0,0.6,2.1,2.7,2.2c0,0,1.7,0.6,2.1,1.3c0,0,0-4.9-3.9-4.8L362.6,50.6z"/>
</g>
<g>
</g>
<g>
</g>
<g>
</g>
<g>
</g>
<g>
</g>
<g>
</g>
</svg>
