<?xml version="1.0" encoding="utf-8"?>
<!-- Generator: Adobe Illustrator 18.1.1, SVG Export Plug-In . SVG Version: 6.00 Build 0)  -->
<svg version="1.1" id="Layer_1" xmlns="http://www.w3.org/2000/svg" xmlns:xlink="http://www.w3.org/1999/xlink" x="0px" y="0px"
	 width="792px" height="233.2px" viewBox="0 0 792 233.2" style="enable-background:new 0 0 792 233.2;" xml:space="preserve">
<style type="text/css">
	.st0{fill:#FDEB03;}
	.st1{fill:none;}
	.st2{fill:#FFFFFF;}
	.st3{fill:#28A8E0;}
	.st4{fill:#BE202E;}
	.st5{fill:#F69321;}
	.st6{fill:#FCEE21;}
	.st7{fill:#3BB34A;}
	.st8{fill:#2A3B8F;}
	.st9{fill:#90298D;}
	.st10{fill:#3C2415;}
	.st11{fill:#ED1C24;}
</style>
<rect y="0" class="st0" width="792" height="233.2"/>
<g>
	<rect x="32.3" y="87.5" class="st1" width="727.4" height="96.7"/>
	<path class="st2" d="M49.6,117.5c0,1.7-0.3,3.2-0.8,4.6c-4.2,0-7.4-0.4-9.7-1.1c0-1.4,0.1-2.9,0.6-4.3
		C42.6,116.6,46,116.9,49.6,117.5z M54,138.1c-2.7,2.1-5.6,3.4-8.7,4.1c-1.1-1.3-1.8-2.6-2.3-3.9c2.9-1.9,5.9-3.3,8.9-4.3
		C52.9,135.4,53.6,136.7,54,138.1z M55.8,101.9c-0.4,1.5-1,2.9-1.7,4.1c-3.9-0.3-7.3-1.3-10.2-3.3c0.4-1.5,0.8-2.9,1.5-4.3
		C48.6,98.9,52.1,100,55.8,101.9z M67,103.2c-1.8,10.1-3.9,19.4-6.4,27.9c0,0-0.9-0.1-2.7-0.4c-0.7-0.1-1.3-0.4-1.8-0.6
		c1.3-8.5,3.5-17.9,6.9-27.9C64.4,102.3,65.7,102.7,67,103.2z M75.7,95.1c6.9,0.1,12.8,0.4,17.9,0.8c0.6,1.8,0.9,5.7,0.9,11.6
		c0,1.3-0.3,2-0.7,2.1c-2.7,1.3-11,1.9-24.8,1.9c-0.3-0.4-0.4-1-0.4-1.9c0-0.8,0.1-1.4,0.2-1.9c3.1-0.4,9.9-0.8,20.4-1.4
		c0-1.2-0.1-3.2-0.1-6.2c-6.6-0.1-16.2-0.4-29-0.9c-0.1-0.7-0.1-1.4-0.1-2.1c0-0.8,0.1-1.5,0.2-2.2C65.4,94.9,70.5,95,75.7,95.1z
		 M91.1,132.7c0.1,0.4,0.2,1,0.2,1.8c0,0.9-0.1,1.5-0.2,1.8c-0.6,0.2-3.5,0.3-8.8,0.3h-1v0.3c0,1.8-0.1,3.2-0.2,4.2
		c3.4-0.1,6.7-0.4,10.1-0.5c0.3,1.3,0.5,2.6,0.5,4c-7.7,0.8-15.5,1.3-23.2,1.6c-0.6-1.1-0.9-2.5-0.9-4.2c2.9-0.3,5.8-0.5,8.8-0.6
		c-0.3-1.3-0.4-2.8-0.4-4.5v-0.3c-5.7,0-8.8-0.1-9.5-0.3c-0.1-0.5-0.2-1.1-0.2-1.9c0-0.6,0.1-1.3,0.3-1.8c3-0.1,6.2-0.1,9.7-0.2
		c0.1-1.1,0.2-2.2,0.5-3.2c0.6-0.1,1.3-0.3,2.1-0.3c0.8,0,1.5,0.1,2.1,0.3c0.1,1.2,0.1,2.2,0.3,3.2h1.1
		C85.9,132.4,88.8,132.5,91.1,132.7z M67.5,117c0-1.4,0.1-2.7,0.4-3.9c7.2,0.5,14.3,1.1,21.1,2c0,1.1-0.2,2.2-0.6,3.6
		c-4.1,0-8.1-0.2-12.2-0.6c-0.8,1.9-1.7,3.8-2.4,5.6c2.5,0.1,6.9,0.4,12.9,0.8c0.1,0.6,0.3,1.2,0.3,1.8c0,0.6-0.1,1.3-0.3,2
		c-7.3,0-13.6-0.4-19-1.2c0.8-3.4,2.2-6.5,3.9-9.5C70.3,117.4,68.9,117.3,67.5,117z M95.4,125.4c-0.7,0.6-1.8,1.3-3.3,1.8
		c-1.4-1.5-2.6-3.4-3.6-5.8c1-0.8,2.1-1.4,3.5-1.8C93.6,121.8,94.7,123.8,95.4,125.4z"/>
	<path class="st2" d="M119.5,144.2c-1.7-0.5-3-1.3-4-2.2c2.7-6.2,7.2-16,13.7-29.3c-6-0.2-11.9-0.6-17.7-1c0-1.8,0.1-3.4,0.6-4.8
		c6.7,0,13.4,0.1,19.9,0.3c2-4.1,4.1-8.3,6.3-12.8c1.6,0.4,3.1,1.1,4.5,2c-1.7,3.8-3.3,7.4-4.8,10.9c8,0.4,16,0.8,23.9,1.4
		c0,1.6-0.1,3.2-0.4,4.6c-8.8,0-17.4-0.1-26-0.4c-3.4,7.1-6.6,13.7-9.7,19.7c2.7,1,5.6,2,8.7,3.2c-0.3,1.3-0.8,2.7-1.5,4.1
		c-3.3-0.8-6.4-1.9-9.4-3.2C122.2,139.4,120.9,141.8,119.5,144.2z M162,138.5c-0.5,1.3-1.4,2.5-2.8,3.4c-6.1-4.3-11.6-9.3-16.6-14.9
		c0.8-1.3,1.7-2.5,2.6-3.3C150.7,128.4,156.3,133.4,162,138.5z"/>
	<path class="st2" d="M204.3,96.9c-2.8,2.2-5.7,4.3-8.7,6.2c0.8,5.9,1.5,11.8,1.8,17.6c-1.4,0.6-2.9,0.8-4.3,0.8
		c-0.8-5.3-1.4-10.6-1.7-16c-2,1.2-4.1,2.2-6,3.2c-1.1-1.5-1.7-2.9-1.7-4.1c6.7-4.6,13-8.5,18.8-11.7
		C203.5,94.3,204.1,95.6,204.3,96.9z M209.6,119.6c0,3,0,5.9,0,8.7c5.1,0.2,10.2,0.5,15.4,0.8c0.2,0.7,0.4,1.5,0.4,2.3
		c0,0.7-0.1,1.3-0.4,2c-5.3,0-10.4-0.1-15.5-0.4c-0.1,3.2-0.1,6.3-0.2,9.2c0,1.4-0.2,2.9-0.5,4.3c-0.6,0.1-1.3,0.1-2.5,0.1
		c-0.9,0-1.7-0.1-2.3-0.3c-0.3-1.2-0.4-2.4-0.4-3.6c0-3.3,0-6.7,0.1-10c-5-0.2-9.9-0.5-14.8-0.8c-0.3-0.8-0.4-1.5-0.4-2.2
		c0-0.7,0.1-1.5,0.4-2.2c5,0.2,9.9,0.4,15,0.6c0.1-2.9,0.3-5.7,0.5-8.5c0.7-0.1,1.5-0.1,2.5-0.1S208.8,119.5,209.6,119.6z
		 M229.9,105.1c-4.8,1.4-9.4,2.4-13.9,3c0,2.2,0.1,4.3,0.2,6.4c2.7,0,5.5-0.1,8.6-0.2c0.2,0.6,0.3,1.2,0.3,1.8c0,0.9-0.1,1.6-0.1,2
		c-1.1,0.4-3.2,0.6-6.4,0.6c-3.5,0-5.8-0.1-6.8-0.4c-0.3-3.3-0.4-6.5-0.6-9.7c-2.5,0.3-5,0.4-7.5,0.4c-0.3-1.3-0.4-2.6-0.4-4
		c2.5-0.6,5.1-1.1,7.7-1.5c-0.1-3.1-0.1-6.2-0.1-9.1c0.8-0.1,1.6-0.3,2.2-0.3c0.8,0,1.6,0.1,2.3,0.1c0.1,2.9,0.1,5.7,0.3,8.5
		c4.5-0.7,9.1-1.3,13.8-1.8C229.8,102.3,229.9,103.7,229.9,105.1z"/>
	<path class="st3" d="M320,118.1c2.2-4.6,4.5-9.1,6.9-13.7c2.1,0.3,3.7,1,5,2c-1.6,4-3.2,8-5,11.8c9.4,0.2,18.6,0.6,27.8,1v2.5
		c0,1.3-0.2,2.2-0.3,2.9c-11.3,0-21.4-0.1-30.2-0.3c-3.4,7.4-7.1,14.8-11,22c-1.9-0.2-3.7-0.9-5.4-2.2c2.9-6.7,5.9-13.4,9.1-20
		c-5.7-0.1-10.8-0.2-15.3-0.6c-0.2-0.4-0.3-1.4-0.3-2.8c0-1,0.2-1.8,0.5-2.8C308,117.9,314,118,320,118.1z M353.1,93.2
		c0,1.8-0.2,3.6-0.5,5.3c-16.7,0-33-0.6-48.9-1.8c0-2,0.2-3.8,0.6-5.4C320.8,91.2,337,91.9,353.1,93.2z M351.7,141.1
		c-0.7,1.5-1.7,2.8-2.9,3.8c-4.4-2.2-8.3-4.9-11.8-7.9c0.7-1.5,1.6-2.9,2.6-4C343.7,135,347.8,137.7,351.7,141.1z"/>
	<path class="st3" d="M408.1,93.5c-10,3-20.1,4.8-30.2,5.4c-0.7-1.1-1-2.8-1-5c9.8-2.2,19.9-3.9,30.6-5.4
		C407.9,90.2,408.1,91.8,408.1,93.5z M386,111.1c-1.4,0.8-2.8,1.2-4.2,1.4c-1.7-2.4-2.6-5.4-3-9c1.2-0.5,2.6-0.9,4.2-1.2
		C384.4,104.2,385.3,107.1,386,111.1z M392.4,119.2c-0.1-2.1-0.1-4.1-0.1-6c0.3-0.2,1.3-0.4,2.9-0.6c1.2,0,2.1,0.2,2.6,0.3
		c0.2,2.1,0.3,4.2,0.5,6.4c3.2,0.2,6.5,0.2,9.7,0.4v2.3c0,1-0.2,1.8-0.6,2.6c-3,0-5.9,0-8.8-0.1c0,1.7,0.1,3.4,0.2,5
		c3.1,0.8,6.2,2,9.3,3.4c-0.2,1.4-0.7,3-1.4,4.7c-3-0.6-5.6-1.3-7.8-2.2c0,2.9,0.1,5.8,0.1,8.8c-0.7,0.2-1.7,0.2-2.9,0.2
		c-1.5,0-2.5-0.1-2.9-0.1c-0.2-3.3-0.4-6.4-0.5-9.4c-3.8,2.2-7.4,4.2-10.9,5.9c-1.2-1.2-2.1-2.6-2.6-4.3c4.1-2.8,8.5-5.5,13.2-8.1
		c-0.1-1.4-0.2-2.9-0.2-4.2c-3.7-0.1-7.4-0.2-11-0.4c-0.2-1-0.3-1.9-0.3-2.7c0-0.7,0-1.5,0.2-2.3
		C384.9,119.1,388.7,119.1,392.4,119.2z M398.9,102.1c-0.7,2.8-1.8,5.6-3,8.5c-1.8-0.5-3.4-1.2-4.7-2.2c0.8-2.8,1.8-5.5,3.2-8.2
		C396.2,100.7,397.7,101.3,398.9,102.1z M413.3,102.7c-1,3-2.3,5.9-4.1,9c-1.9-0.5-3.5-1.2-4.9-2.2c1-3,2.5-6,4.2-8.8
		C410.5,101.1,412.1,101.8,413.3,102.7z M434.8,97.6c-5,3.3-11,5.6-17.8,7c-1-1-1.8-2.2-2.2-3.9c5.4-3,11.5-5.4,18.4-7.1
		C434.1,94.8,434.6,96.2,434.8,97.6z M438.5,133.8c-5.9,2.3-12.2,3.8-18.7,4.4c-0.6-1.4-0.9-2.9-1-4.5c5.6-2,11.8-3.5,18.7-4.5
		C438.2,130.8,438.5,132.3,438.5,133.8z M437.2,116.7c-5.6,1.3-10.8,2.2-15.8,2.7c-0.6-1.4-0.9-2.9-0.9-4.6c5.1-1.6,10.3-2.6,15.5-3
		C436.8,113.2,437.2,114.9,437.2,116.7z"/>
	<path class="st2" d="M531.5,101.5v2c0,1.1-0.1,2-0.3,2.7c-5.5,0-10.9-0.1-16.4-0.2c0,2.1,0.1,4.2,0.1,6.2c4.1,0.1,7.2,0.1,9.2,0.2
		c0.1,0.6,0.1,1.2,0.1,1.9v2c-0.8,0.4-4,0.6-9.3,0.6v5.2c3.2-0.1,6.5-0.1,9.9-0.1c0.1,0.6,0.1,1.3,0.1,2v2.2c-8.3,0.7-16.5,1-24.6,1
		c-0.3-1.4-0.3-2.9-0.3-4.4c3.2-0.2,6.4-0.4,9.8-0.5c-0.1-1.8-0.3-3.5-0.3-5.3h-0.7c-5.7,0-9.8-0.1-12.3-0.6
		c-0.2-0.6-0.3-1.3-0.3-2.1s0-1.5,0.1-2c3.4,0,7.5-0.1,12.5-0.1h0.3c-0.1-2.1-0.1-4.2-0.1-6.3c-6.3-0.1-12.7-0.2-19-0.5
		c-0.2-0.6-0.3-1.4-0.3-2.5c0-0.8,0.2-1.5,0.6-2.3C504.1,100.9,517.7,101.2,531.5,101.5z M514.8,129.4c-0.6,1.1-1,2.2-1.5,3.3
		c5.2-0.1,10.4-0.4,15.6-0.5c0.1,0.7,0.3,1.4,0.3,2.2v2.3c-6.2,0.4-12.3,0.7-18.4,1c-0.3,0.6-0.6,1.1-0.8,1.7
		c-0.9,1.7-1.7,3.1-2.2,4.4c-0.5,0.8-1,1.6-1.4,2.5c-0.3,0.8-1,1.8-1.9,3c-1.6-0.6-3-1.3-4.1-2.2c1.5-3.2,3-6.1,4.6-9
		c-4.1,0.2-8.2,0.4-12.3,0.4c-0.3-1.5-0.4-3.2-0.4-4.7c5.1-0.3,10.2-0.6,15.3-0.8c0.9-1.7,1.8-3.4,2.8-5
		C512.1,128,513.5,128.5,514.8,129.4z M503.3,97.9c-1.5,0.8-2.9,1.3-4.3,1.5c-1.5-2-2.4-4.4-2.7-7.4c1.1-0.5,2.5-0.8,4.1-1.1
		C501.8,92.5,502.7,94.9,503.3,97.9z M526,92.7c-0.4,2.7-1.3,4.7-2.4,6.2c-1.1,0-2.6-0.4-4.3-1.3c0.3-2.2,1.1-4.3,2.2-6.4
		C523,91.6,524.4,92.1,526,92.7z M529.6,144.6c-0.6,1.5-1.5,2.7-2.7,3.6c-2.5-1.3-4.8-2.8-6.7-4.6c0.7-1.4,1.5-2.6,2.3-3.6
		C525,141.2,527.4,142.7,529.6,144.6z"/>
	<path class="st2" d="M577.6,108.9c0-4.1,0.1-8.8,0.2-13.9c0.9-0.1,1.8-0.3,2.8-0.3c0.8,0,1.7,0.1,2.5,0.3c0,5.7,0.1,10.4,0.1,14.1
		c6.9,0.2,13.7,0.5,20.4,0.9v2.2c0,1.1-0.1,2-0.3,2.5c-7.3,0-14,0-20-0.1v5.5c0.1,3.2,0.1,12.3,0.1,27.4c-0.5,0.3-1.3,0.4-2.4,0.4
		c-1.3,0-2.1-0.1-2.5-0.3c-0.5-5-0.8-11.1-0.9-18.7c-7.4,4.5-14.5,8.7-21.1,12.6c-1.1-0.8-2-2-2.6-3.2c7.4-5.6,15.3-10.9,23.7-15.8
		v-8.1c-9.2-0.1-17.1-0.5-23.7-1c-0.2-0.4-0.3-1.2-0.3-2.5c0-0.8,0.1-1.6,0.4-2.5C561.9,108.6,569.7,108.7,577.6,108.9z
		 M603.3,134.5c-0.4,1.3-1,2.5-2,3.9c-3.9-1.1-8.3-2.9-13.1-5.5c0.4-1.5,0.9-2.9,1.8-4.3C594.7,130,599.1,132,603.3,134.5z
		 M603.5,99.7c-0.4,1.4-1,2.7-1.9,4.1c-3.8-0.9-6.9-2.2-9.5-3.9c0.6-1.8,1.2-3.2,1.9-4.5C597.3,96.7,600.5,98.1,603.5,99.7z"/>
	<path class="st2" d="M632.4,107.7c0,4.5-0.3,9.4-0.8,14.8c-0.6,0.2-1.3,0.3-2.4,0.3s-1.8-0.1-2.2-0.5c0-6.6,0.2-11.6,0.8-14.9
		c0.7-0.1,1.5-0.1,2.4-0.1C630.9,107.3,631.7,107.5,632.4,107.7z M640,102.3c-0.8,0.7-2,1.4-3.7,2c-2-2.2-3.8-5-5.4-8.5
		c1-0.8,2.3-1.5,3.8-2C637.2,97,639,99.8,640,102.3z M662,119.9c-1.5,4.1-3.6,8.1-6.2,11.8c0.1,0.5,0.3,1,0.4,1.5
		c5-0.1,10.3-0.4,15.7-0.5c0.1,0.6,0.3,1.3,0.3,2c0,1.1-0.1,1.8-0.1,2.2c-4.9,0.4-9.9,0.6-14.8,0.7c0.6,3.4,1,6.7,1,9.9
		c-0.8,0.3-2.4,0.4-4.8,0.4c-1.8,0-3.6-0.3-5.2-0.7c0-1.1,0.1-2.2,0.3-3.2h5.3c-0.6-2-1-4.1-1.4-6.2c-6.7,0.3-13.4,0.5-20.2,0.5
		c-0.2-1.3-0.3-2.7-0.3-4.1c6.1-0.3,12.6-0.6,19.5-0.9c-0.2-0.8-0.3-1.6-0.5-2.5c1.3-2.3,2.6-4.8,4.1-7.4
		c-5.9-0.6-11.7-1.3-17.5-2.3c0-1.4,0.1-2.8,0.6-4.1C645.9,117.5,653.9,118.4,662,119.9z M675.1,106.4c0.6,4.8,0.8,9.5,0.8,13.9
		c-0.4,0.2-1.1,0.3-2,0.3c-0.6,0-1.4,0-2.3-0.1c-0.4-2-0.8-5.3-1.2-9.7c-11.3,0-22.8-0.1-34.3-0.2c-0.2-0.6-0.3-1.4-0.3-2.2
		c0-0.6,0-1.3,0.1-2C649.3,106.3,662.3,106.3,675.1,106.4z M654.4,101c-1.3,0.7-2.5,1.1-3.8,1.3c-1.5-2.2-2.4-4.8-2.7-8.1
		c1-0.5,2.2-0.8,3.7-1.1C653,94.9,653.9,97.5,654.4,101z M671.5,94.5c-1.4,4.3-2.5,7.4-3.4,9c-1.8,0-3.2-0.4-4.3-1.1
		c0.8-3.5,1.9-6.7,3.3-9.3C668.8,93.3,670.3,93.8,671.5,94.5z"/>
	<path class="st2" d="M704.5,101c0.3,3.2,0.6,6.3,0.8,9.5h0.3c2.9,0,5,0.1,6.2,0.4c0.1,0.6,0.1,1.1,0.1,1.8v2
		c-0.5,0.3-2.6,0.4-6.4,0.4c0.1,2.3,0.1,4.6,0.3,7c2.5,1.2,5,2.5,7.4,3.8c-0.4,1.3-1,2.5-1.8,3.8c-2-0.6-3.9-1.2-5.4-2
		c0.1,3.6,0.1,7.2,0.1,10.9c-0.6,0.2-1.3,0.3-2.2,0.3c-1.2,0-2,0-2.3-0.1c-0.3-3.8-0.6-7.5-0.7-11.1c-1.8,1.4-4,2.8-6.4,4.2
		c-1.2-1.2-2-2.5-2.6-3.7c2.5-2.1,5.5-4.3,8.8-6.4c-0.1-2.2-0.2-4.4-0.3-6.5c-2.9-0.1-5.2-0.2-6.7-0.4c-0.2-0.6-0.3-1.3-0.3-2.1
		c0-0.7,0-1.3,0.1-1.9c2,0,4.3-0.1,6.8-0.1c-0.1-3.2-0.1-6.3-0.1-9.4c0.3-0.1,1-0.3,2.2-0.4C703.4,100.7,704.1,100.9,704.5,101z
		 M726.2,111.8c-1.9,3.6-4.1,7.5-6.7,11.6c-1.5-0.6-2.8-1.3-3.9-2.5c2.4-4.2,4.6-8,6.9-11.2C723.8,110.3,725.1,111,726.2,111.8z
		 M735.4,101.2c4.4,0.2,8.8,0.5,13.2,0.8c0,1.4-0.1,2.8-0.3,4.1c-10.9,0-21.6-0.4-32.3-1.3c0-1.5,0.1-2.9,0.3-4.3
		c4.6,0.1,9.3,0.2,13.9,0.4c-0.6-2.1-0.8-4.4-0.8-6.9c1.6-0.3,3.2-0.5,4.8-0.5C734.8,96.3,735.2,98.8,735.4,101.2z M743.5,127.3
		c-2,2.8-4.5,5.7-7.4,8.9c2.8,2.2,5.6,4.5,8.4,6.7c-0.5,1.3-1.4,2.5-2.8,3.6c-3.3-2.1-6.4-4.3-9.2-6.6c-2.4,2.2-4.9,4.6-7.7,7.1
		c-1.4-0.8-2.4-1.8-2.9-3c2.1-2.6,4.3-5,6.4-7.4c-2.7-2.2-5.3-4.6-7.8-7c0.8-1.4,1.7-2.5,2.6-3.4c2.9,2.2,5.8,4.3,8.8,6.6
		c2.8-2.9,5.7-5.6,8.6-8.3C741.7,125.4,742.7,126.3,743.5,127.3z M749.1,117.5c-0.6,1.1-1.3,2.3-2.3,3.5c-4.1-2-7.8-4.1-10.9-6.6
		c0.6-1.5,1.3-2.8,2.2-4.1C741.7,112.5,745.4,114.9,749.1,117.5z"/>
</g>
<g>
	<g>
		<path class="st4" d="M284.1,87.9c0,0-1.3-25.1,46.8-40.2c0,0,39.3-11.7,82.1,3.3c0,0,38,12.2,40.1,36.9H451c0,0-1.1-8-9.6-15.9
			c0,0-18.8-17.9-47.5-23.6c-0.5-0.1-1-0.2-1.5-0.3c-4.6-1.1-33.7-7.5-63.6,3.2c-0.4,0.2-0.8,0.3-1.3,0.4
			c-4.3,1.5-34.7,12.5-40.8,36.2H284.1z"/>
		<path class="st5" d="M284.1,89.7c0,0-1.3-25.1,46.8-40.2c0,0,39.3-11.7,82.1,3.3c0,0,38,12.2,40.1,36.9H451c0,0-1.1-8-9.6-15.9
			c0,0-18.8-17.9-47.5-23.6c-0.5-0.1-1-0.2-1.5-0.3c-4.6-1.1-33.7-7.5-63.6,3.2c-0.4,0.2-0.8,0.3-1.3,0.4
			c-4.3,1.5-34.7,12.5-40.8,36.2H284.1z"/>
		<path class="st6" d="M284.1,92c0,0-1.3-25.1,46.8-40.2c0,0,39.3-11.7,82.1,3.3c0,0,38,12.2,40.1,36.9H451c0,0-1.1-8-9.6-15.9
			c0,0-18.8-17.9-47.5-23.6c-0.5-0.1-1-0.2-1.5-0.3c-4.6-1.1-33.7-7.5-63.6,3.2c-0.4,0.2-0.8,0.3-1.3,0.4
			c-4.3,1.5-34.7,12.5-40.8,36.2H284.1z"/>
		<path class="st7" d="M284.1,93.5c0,0-1.3-25.1,46.8-40.2c0,0,39.3-11.7,82.1,3.3c0,0,38,12.2,40.1,36.9H451c0,0-1.1-8-9.6-15.9
			c0,0-18.8-17.9-47.5-23.6c-0.5-0.1-1-0.2-1.5-0.3c-4.6-1.1-33.7-7.5-63.6,3.2c-0.4,0.2-0.8,0.3-1.3,0.4
			c-4.3,1.5-34.7,12.5-40.8,36.2H284.1z"/>
		<path class="st3" d="M284.1,95.1c0,0-1.3-25.1,46.8-40.2c0,0,39.3-11.7,82.1,3.3c0,0,38,12.2,40.1,36.9H451c0,0-1.1-8-9.6-15.9
			c0,0-18.8-17.9-47.5-23.6c-0.5-0.1-1-0.2-1.5-0.3c-4.6-1.1-33.7-7.5-63.6,3.2c-0.4,0.2-0.8,0.3-1.3,0.4
			c-4.3,1.5-34.7,12.5-40.8,36.2H284.1z"/>
		<path class="st8" d="M284.1,97.6c0,0-1.3-25.1,46.8-40.2c0,0,35.2-13.6,82.1,3.3c0,0,38,12.2,40.1,36.9H451c0,0-1.1-8-9.6-15.9
			c0,0-18.8-17.9-47.5-23.6c-0.5-0.1-1-0.2-1.5-0.3c-4.6-1.1-33.7-7.5-63.6,3.2c-0.4,0.2-0.8,0.3-1.3,0.4
			c-4.3,1.5-34.7,12.5-40.8,36.2H284.1z"/>
		<path class="st9" d="M284.1,100.1c0,0-1.3-25.1,46.8-40.2c0,0,36.2-13.6,82.1,3.3c0,0,38,12.2,40.1,36.9H451c0,0-1.1-8-9.6-15.9
			c0,0-18.8-17.9-47.5-23.6c-0.5-0.1-1-0.2-1.5-0.3c-4.6-1.1-33.7-7.5-63.6,3.2c-0.4,0.2-0.8,0.3-1.3,0.4
			c-4.3,1.5-34.7,12.5-40.8,36.2H284.1z"/>
	</g>
	<path class="st2" d="M438.1,96.1c0,0-0.2-13.1,14.1-12.8c0,0,9.3-10.8,17.7-0.8c0,0,8.2-2.2,8.9,3.9c0.3,2.7-1.2,5.3-3.5,6.7
		c-0.6,0.4-1.2,0.7-1.9,1c0,0,0.4,13.9-14,13.5c0,0-5.5,11.2-16.8,4.4c0,0-10.7,4.7-8.1-5.2C434.5,106.8,429.5,100.4,438.1,96.1z"/>
	<path class="st10" d="M445.9,102.7c0,0-2.5-9.1,6.5-6.4C452.3,96.3,444.5,93.1,445.9,102.7z"/>
	<path class="st10" d="M456.3,93.2c0,0-2.5-9.1,6.5-6.4C462.8,86.8,455,83.7,456.3,93.2z"/>
	<path class="st11" d="M461.2,96.6c0,0,2.5,6.8-6.3,4.8C454.9,101.4,462.5,103.8,461.2,96.6z"/>
	<g>
		<path class="st2" d="M273.9,81.4c0,0,11.1-7,18.3,5.4c0,0,14.1,2.3,9.9,14.7c0,0,6.1,5.9,1.3,9.6c-2.2,1.7-5.1,1.7-7.6,0.5
			c-0.6-0.3-1.3-0.7-1.8-1.2c0,0-11.6,7.5-18.8-4.9c0,0-12.4,1.1-12.5-12.1c0,0-9.6-6.6,0.2-9.6C262.9,83.9,265.8,76.3,273.9,81.4z"
			/>
		<path class="st10" d="M272.3,91.5c0,0,6.4-6.9,8.8,2.2C281.2,93.6,279.8,85.3,272.3,91.5z"/>
		<path class="st10" d="M285.8,95.4c0,0,6.4-6.9,8.8,2.2C294.7,97.6,293.3,89.3,285.8,95.4z"/>
		<path class="st11" d="M285.5,101.4c0,0-4.5,5.7-7.4-2.9C278.1,98.5,280.1,106.3,285.5,101.4z"/>
	</g>
</g>
<g>
</g>
<g>
</g>
<g>
</g>
<g>
</g>
<g>
</g>
<g>
</g>
</svg>
